<?xml version="1.0" encoding="utf-8"?>
<!-- Generator: Adobe Illustrator 22.1.0, SVG Export Plug-In . SVG Version: 6.00 Build 0)  -->
<svg version="1.1" id="Layer_1" xmlns="http://www.w3.org/2000/svg" xmlns:xlink="http://www.w3.org/1999/xlink" x="0px" y="0px"
	 viewBox="0 0 512 512" style="enable-background:new 0 0 512 512;" xml:space="preserve">
<g>
	<path d="M141.7,245.8c7.7,0,14.7-3.1,19.7-8.1l28.2,14.1c-0.1,1.1-0.4,2.3-0.4,3.5c0,15.7,12.8,28.6,28.6,28.6s28.6-12.8,28.6-28.6
		c0-4.4-1.1-8.5-2.9-12.3l38.2-38.2c3.7,1.8,7.9,2.9,12.3,2.9c15.7,0,28.6-12.8,28.6-28.6c0-3-0.6-5.8-1.4-8.4l33.2-24.9
		c4.5,3,10,4.8,15.8,4.8c15.7,0,28.6-12.8,28.6-28.6S386,93.5,370.3,93.5c-15.7,0-28.6,12.8-28.6,28.6c0,3,0.6,5.8,1.4,8.4
		l-33.2,24.9c-4.5-3-10-4.8-15.8-4.8c-15.7,0-28.6,12.8-28.6,28.6c0,4.4,1.1,8.5,2.9,12.3l-38.2,38.2c-3.7-1.8-7.9-2.9-12.3-2.9
		c-7.7,0-14.7,3.1-19.7,8.1L170,220.7c0.1-1.1,0.4-2.3,0.4-3.5c0-15.7-12.8-28.6-28.6-28.6s-28.6,12.8-28.6,28.6
		S126,245.8,141.7,245.8z"/>
	<path d="M409,399.5h-10.2V198.2c0-5.3-4.3-9.5-9.5-9.5h-38.1c-5.3,0-9.5,4.3-9.5,9.5v201.2h-19V255.4c0-5.3-4.3-9.5-9.5-9.5H275
		c-5.3,0-9.5,4.3-9.5,9.5v144.1h-19v-67.9c0-5.3-4.3-9.5-9.5-9.5h-38.1c-5.3,0-9.5,4.3-9.5,9.5v67.9h-19v-106c0-5.3-4.3-9.5-9.5-9.5
		h-38.1c-5.3,0-9.5,4.3-9.5,9.5v106H103c-5.3,0-9.5,4.3-9.5,9.5s4.3,9.5,9.5,9.5h306c5.3,0,9.5-4.3,9.5-9.5S414.3,399.5,409,399.5z"
		/>
</g>
<path d="M350.2,0H161.8C72.4,0,0,72.4,0,161.8v188.4C0,439.6,72.4,512,161.8,512h188.4c89.4,0,161.8-72.4,161.8-161.8V161.8
	C512,72.4,439.6,0,350.2,0z M479.5,317.7c0,89.4-72.4,161.8-161.8,161.8H194.3c-89.4,0-161.8-72.4-161.8-161.8V194.3
	c0-89.4,72.4-161.8,161.8-161.8h123.5c89.4,0,161.8,72.4,161.8,161.8V317.7z"/>
</svg>
