<?xml version="1.0" encoding="utf-8"?>
<!-- Generator: Adobe Illustrator 22.1.0, SVG Export Plug-In . SVG Version: 6.00 Build 0)  -->
<svg version="1.1" id="Capa_1" xmlns="http://www.w3.org/2000/svg" xmlns:xlink="http://www.w3.org/1999/xlink" x="0px" y="0px"
	 viewBox="0 0 80.1 80.1" style="enable-background:new 0 0 80.1 80.1;" xml:space="preserve">
<g>
	<path d="M40,36.2c6,0,10.8-4.8,10.8-10.8S46,14.6,40,14.6s-10.8,4.8-10.8,10.8S34,36.2,40,36.2z M44.5,36.9h-9.2
		c-7.6,0-13.7,6.2-13.7,13.7V62v0.2l0.8,0.3c7.2,2.3,13.6,3.1,18.8,3.1c10.2,0,16.1-2.9,16.4-3.1l0.8-0.4h0.1V50.8
		C58.4,43.2,52.2,36.9,44.5,36.9z"/>
</g>
<path d="M54.8,0H25.3C11.3,0,0,11.3,0,25.3v29.5c0,14,11.3,25.3,25.3,25.3h29.5c14,0,25.3-11.3,25.3-25.3V25.3
	C80.1,11.3,68.8,0,54.8,0z M75,49.7C75,63.7,63.7,75,49.7,75H30.4c-14,0-25.3-11.3-25.3-25.3V30.4c0-14,11.3-25.3,25.3-25.3h19.3
	c14,0,25.3,11.3,25.3,25.3V49.7z"/>
</svg>
