<?xml version="1.0" encoding="utf-8"?>
<!-- Generator: Adobe Illustrator 22.1.0, SVG Export Plug-In . SVG Version: 6.00 Build 0)  -->
<svg version="1.1" id="Capa_1" xmlns="http://www.w3.org/2000/svg" xmlns:xlink="http://www.w3.org/1999/xlink" x="0px" y="0px"
	 viewBox="0 0 32 32" style="enable-background:new 0 0 32 32;" xml:space="preserve">
<style type="text/css">
	.st0{fill:#FFFFFF;}
</style>
<g>
	<g id="calendar_1_">
		<rect x="21.9" y="22.6" class="st0" width="4.7" height="3.5"/>
		<rect x="5.4" y="10.8" class="st0" width="4.7" height="3.5"/>
		<rect x="5.4" y="16.7" class="st0" width="4.7" height="3.5"/>
		<rect x="5.4" y="22.6" class="st0" width="4.7" height="3.5"/>
		<rect x="13.6" y="22.6" class="st0" width="4.7" height="3.5"/>
		<rect x="13.6" y="16.7" class="st0" width="4.7" height="3.5"/>
		<rect x="13.6" y="10.8" class="st0" width="4.7" height="3.5"/>
		<rect x="21.9" y="16.7" class="st0" width="4.7" height="3.5"/>
		<rect x="21.9" y="10.8" class="st0" width="4.7" height="3.5"/>
		<path class="st0" d="M29.3,3h-4.1V1c0-0.5-0.4-0.9-1-1c-0.1,0-0.1,0-0.2,0s-0.2,0-0.2,0c-0.6,0.1-0.9,0.4-0.9,1v2l0,0h-5.7V1
			c0-0.5-0.3-0.8-0.8-0.9l0,0c-0.1,0-0.1,0-0.2,0s-0.1,0-0.2,0s-0.2,0-0.2,0c-0.1,0-0.1,0-0.2,0l0,0c-0.5,0.1-0.8,0.5-0.8,0.9v2H9.2
			V1c0-0.5-0.4-0.9-1-1c0,0-0.1,0-0.2,0S7.8,0,7.8,0c-0.6,0.1-1,0.4-1,1v2H2.7C1.2,3,0,4.2,0,5.7v23.7C0,30.8,1.2,32,2.7,32h26.7
			c1.5,0,2.7-1.2,2.7-2.7V5.7C32,4.2,30.8,3,29.3,3z M28.8,28.3c0,0.4-0.3,0.6-0.6,0.6H3.8c-0.4,0-0.6-0.3-0.6-0.6V6.7
			C3.2,6.3,3.4,6,3.8,6h3v2c0,0.6,0.5,1,1.2,1s1.2-0.4,1.2-1V6h5.7v2c0,0.6,0.5,1,1.2,1s1.2-0.4,1.2-1V6H23v2c0,0.6,0.5,1,1.2,1
			s1.2-0.4,1.2-1V6h3.1c0.4,0,0.6,0.3,0.6,0.6v21.7H28.8z"/>
	</g>
</g>
</svg>
