<?xml version="1.0" encoding="utf-8"?>
<!-- Generator: Adobe Illustrator 22.1.0, SVG Export Plug-In . SVG Version: 6.00 Build 0)  -->
<svg version="1.1" id="Capa_1" xmlns="http://www.w3.org/2000/svg" xmlns:xlink="http://www.w3.org/1999/xlink" x="0px" y="0px"
	 viewBox="0 0 32 32" style="enable-background:new 0 0 32 32;" xml:space="preserve">
<style type="text/css">
	.st0{fill:#FFFFFF;}
</style>
<g>
	<g id="calendar_2_">
		<rect x="19.7" y="20.2" class="st0" width="3" height="2.2"/>
		<rect x="9.2" y="12.7" class="st0" width="3" height="2.2"/>
		<rect x="9.2" y="16.4" class="st0" width="3" height="2.2"/>
		<rect x="9.2" y="20.2" class="st0" width="3" height="2.2"/>
		<rect x="14.4" y="20.2" class="st0" width="3" height="2.2"/>
		<rect x="14.4" y="16.4" class="st0" width="3" height="2.2"/>
		<rect x="14.4" y="12.7" class="st0" width="3" height="2.2"/>
		<rect x="19.7" y="16.4" class="st0" width="3" height="2.2"/>
		<rect x="19.7" y="12.7" class="st0" width="3" height="2.2"/>
		<path class="st0" d="M24.4,7.7h-2.6V6.5c0-0.3-0.3-0.6-0.6-0.6c-0.1,0-0.1,0-0.1,0s-0.1,0-0.1,0c-0.4,0.1-0.6,0.3-0.6,0.6v1.3l0,0
			h-3.6V6.5c0-0.3-0.2-0.5-0.5-0.6l0,0c-0.1,0-0.1,0-0.1,0s-0.1,0-0.1,0c-0.1,0-0.1,0-0.1,0c-0.1,0-0.1,0-0.1,0l0,0
			c-0.3,0.1-0.5,0.3-0.5,0.6v1.3h-3.6V6.5c0-0.3-0.3-0.6-0.6-0.6c0,0-0.1,0-0.1,0s-0.1,0-0.1,0c-0.4,0.1-0.6,0.3-0.6,0.6v1.3H7.5
			c-1,0-1.7,0.8-1.7,1.7v15c0,0.9,0.8,1.7,1.7,1.7h16.9c1,0,1.7-0.8,1.7-1.7v-15C26.1,8.5,25.4,7.7,24.4,7.7z M24.1,23.8
			c0,0.3-0.2,0.4-0.4,0.4H8.2c-0.3,0-0.4-0.2-0.4-0.4V10.1c0-0.3,0.1-0.4,0.4-0.4h1.9v1.3c0,0.4,0.3,0.6,0.8,0.6s0.8-0.3,0.8-0.6
			V9.7h3.6v1.3c0,0.4,0.3,0.6,0.8,0.6c0.4,0,0.8-0.3,0.8-0.6V9.7h3.6v1.3c0,0.4,0.3,0.6,0.8,0.6c0.4,0,0.8-0.3,0.8-0.6V9.7h2
			c0.3,0,0.4,0.2,0.4,0.4v13.8C24.3,23.8,24.1,23.8,24.1,23.8z"/>
	</g>
</g>
<path class="st0" d="M21.9,0H10.1C4.5,0,0,4.5,0,10.1v11.8C0,27.5,4.5,32,10.1,32h11.8C27.5,32,32,27.5,32,21.9V10.1
	C32,4.5,27.5,0,21.9,0z M30,19.9C30,25.4,25.4,30,19.9,30h-7.7C6.6,30,2,25.4,2,19.9v-7.7C2,6.6,6.6,2,12.1,2h7.7
	C25.4,2,30,6.6,30,12.1V19.9z"/>
</svg>
