<?xml version="1.0" encoding="utf-8"?>
<!-- Generator: Adobe Illustrator 22.1.0, SVG Export Plug-In . SVG Version: 6.00 Build 0)  -->
<svg version="1.1" id="Layer_1" xmlns="http://www.w3.org/2000/svg" xmlns:xlink="http://www.w3.org/1999/xlink" x="0px" y="0px"
	 viewBox="0 0 300.1 80" style="enable-background:new 0 0 300.1 80;" xml:space="preserve">
<style type="text/css">
	.st0{fill:#4796EC;}
</style>
<title>savebutton</title>
<path class="st0" d="M122.8,46.8c-0.7-5.9-7.3-9-12.3-5.7c-2.5,1.6-3.4,4.1-3.4,7c0,0.3,0,0.6,0,0.9c0.1,3.5,2.5,6.5,6,7
	c1.3,0.2,2.8,0.1,4.1-0.1c1.4-0.2,2.5-0.9,3.5-2C122.6,51.9,123.2,49.5,122.8,46.8z M122.8,46.8c-0.7-5.9-7.3-9-12.3-5.7
	c-2.5,1.6-3.4,4.1-3.4,7c0,0.3,0,0.6,0,0.9c0.1,3.5,2.5,6.5,6,7c1.3,0.2,2.8,0.1,4.1-0.1c1.4-0.2,2.5-0.9,3.5-2
	C122.6,51.9,123.2,49.5,122.8,46.8z M122.8,46.8c-0.7-5.9-7.3-9-12.3-5.7c-2.5,1.6-3.4,4.1-3.4,7c0,0.3,0,0.6,0,0.9
	c0.1,3.5,2.5,6.5,6,7c1.3,0.2,2.8,0.1,4.1-0.1c1.4-0.2,2.5-0.9,3.5-2C122.6,51.9,123.2,49.5,122.8,46.8z M180,46
	c-0.8-3.7-3.4-5.8-7.3-6c-3.1-0.1-5.7,0.9-7.3,3.7c-0.9,1.5-1,3.2-1,4.9c0,4.3,2.6,7.2,6.9,7.7c2.7,0.3,5.2-0.3,7.1-2.5
	c1.4-1.6,1.8-3.5,1.8-5.6C180.1,47.4,180.1,46.7,180,46z M180,46c-0.8-3.7-3.4-5.8-7.3-6c-3.1-0.1-5.7,0.9-7.3,3.7
	c-0.9,1.5-1,3.2-1,4.9c0,4.3,2.6,7.2,6.9,7.7c2.7,0.3,5.2-0.3,7.1-2.5c1.4-1.6,1.8-3.5,1.8-5.6C180.1,47.4,180.1,46.7,180,46z
	 M122.8,46.8c-0.7-5.9-7.3-9-12.3-5.7c-2.5,1.6-3.4,4.1-3.4,7c0,0.3,0,0.6,0,0.9c0.1,3.5,2.5,6.5,6,7c1.3,0.2,2.8,0.1,4.1-0.1
	c1.4-0.2,2.5-0.9,3.5-2C122.6,51.9,123.2,49.5,122.8,46.8z M269.2,0H29.9C13.1,0,0,10.6,0,24.2v31.7C0,69.4,13.1,80,29.9,80h240.3
	c16.8,0,29.9-10.6,29.9-24.2V24.2C299.2,10.6,286.1,0,269.2,0z M70.2,47.2c0,1-0.1,1.1-1.1,1.1c-3.8,0-7.7,0-11.5,0
	c-1.2,0-1.3,0.1-1.3,1.3V61c0,1.2-0.1,1.3-1.3,1.3c-1.9,0-3.8,0-5.7,0c-1.1,0-1.2-0.1-1.2-1.2c0-1.9,0-3.9,0-5.8h0c0-2,0-3.9,0-5.9
	c0-1-0.1-1.1-1.1-1.1c-3.8,0-7.7,0-11.5,0c-1.2,0-1.3-0.1-1.3-1.3c0-2,0-4,0-6c0-0.9,0.1-1.1,1.1-1.1h11.5c1.3,0,1.3-0.1,1.3-1.3
	c0-3.7,0-7.5,0-11.2c0-1.2,0.1-1.2,1.2-1.2c1.9,0,3.8,0,5.7,0c1.2,0,1.3,0.1,1.3,1.3v11.2c0,1.2,0.1,1.3,1.3,1.3h11.4
	c1.2,0,1.3,0.1,1.3,1.2C70.2,43.2,70.2,45.2,70.2,47.2z M131.3,55.7c-2.3,5.2-6.3,8.2-12,9c-3.8,0.6-7.3-0.4-10.3-2.9
	c-0.6-0.5-1.2-1.1-1.9-1.8c0,0.3-0.1,0.6-0.1,0.8c0,0.8,0,1.5,0,2.3c0,0.6-0.2,1-0.9,1c-2.4,0-4.8,0-7.2,0c-0.7,0-1-0.3-0.9-0.9
	c0-0.2,0-0.4,0-0.7V15.9c0-1.6,0-1.6,1.5-1.6c2.4,0,4.7,0,7.1,0c1.1,0,1.2,0.1,1.2,1.2v18.8c0,0.3,0,0.7,0.1,1.2
	c0.3-0.2,0.5-0.4,0.7-0.5c1.9-2.2,4.4-3,7.1-3.4c4.9-0.7,9.2,0.6,12.5,4.3c2.6,2.8,3.9,6.3,4.4,10C133,49.3,132.7,52.6,131.3,55.7z
	 M148.6,63c0,1-0.1,1.1-1.1,1.1h-7.5c-1.2,0-1.3-0.1-1.3-1.2V15.7c0-1.4,0-1.4,1.4-1.4c2.5,0,4.9,0,7.4,0c1,0,1.1,0.1,1.1,1.1V63z
	 M189.3,53.1c-1.8,5.8-5.8,9.3-11.5,11c-1.8,0.5-3.7,0.7-4.7,0.8c-5.6-0.1-9.9-1.4-13.4-4.6c-3-2.7-4.7-6.2-5.1-10.3
	c-0.3-3.2,0-6.2,1.4-9.2c2.2-4.7,6-7.6,10.9-8.9c5-1.3,10-0.9,14.6,1.6c5.1,2.8,7.9,7.1,8.4,12.9C190.2,48.8,190,51,189.3,53.1z
	 M206.3,53.5c2.1,2.9,7.7,4,10.6,0.9c0.4-0.4,0.7-0.5,1.1,0c1.8,1.9,3.6,3.8,5.4,5.7c0.5,0.5,0.4,0.8-0.1,1.3c-2.3,2-5,2.9-7.9,3.4
	c-4.3,0.6-8.5,0-12.3-2.2c-5.3-3-8.2-8.1-8.2-16.6c0.1-4.2,2.8-9.2,8.5-12.4c1.9-1.1,4-1.6,6.1-2c3.5-0.5,6.9-0.2,10.1,1.2
	c1.3,0.6,2.5,1.5,3.8,2.3c0.6,0.4,0.3,0.8-0.1,1.2c-1.1,1.2-2.2,2.4-3.4,3.5c-0.7,0.7-1.4,1.4-2.1,2.2c-0.3,0.3-0.5,0.3-0.7,0
	c-3.1-3.5-9.3-2.2-11.3,1.4C204.2,46.3,204.4,50.8,206.3,53.5z M259.8,64.2c-3.4,0-6.8,0-10.2,0c-0.8,0-1.4-0.3-1.8-1
	c-3.2-4.8-6.4-9.6-9.5-14.3c-0.2-0.2-0.4-0.5-0.7-0.7c0,0.3-0.1,0.6-0.1,1v13.7c0,1.2-0.1,1.3-1.3,1.3h-7.3c-1,0-1.2-0.1-1.2-1.1
	V15.5c0-1,0.1-1.1,1.2-1.1c2.5,0,4.9,0,7.4,0c1.2,0,1.2,0.1,1.3,1.2v27.7c0,0.4,0,0.7,0.1,1.3c0.3-0.3,0.5-0.4,0.7-0.6
	c3.2-3.7,6.5-7.5,9.7-11.2c0.3-0.3,0.9-0.6,1.3-0.6c3.4-0.1,6.9,0,10.3,0c0.2,0,0.5,0.1,0.8,0.1c-0.5,0.6-0.9,1.1-1.3,1.6
	c-3.2,3.7-6.5,7.3-9.7,11c-0.3,0.4-0.7,0.8-1,1.1c-0.5,0.5-0.4,0.9,0,1.4c3.3,4.4,6.6,8.8,9.8,13.2c0.7,1,1.4,1.9,2.1,2.9
	c0.1,0.2,0.2,0.4,0.4,0.7C260.3,64.1,260,64.1,259.8,64.2z M172.7,40c-3.1-0.1-5.7,0.9-7.3,3.7c-0.9,1.5-1,3.2-1,4.9
	c0,4.3,2.6,7.2,6.9,7.7c2.7,0.3,5.2-0.3,7.1-2.5c1.4-1.6,1.8-3.5,1.8-5.6c0-0.7,0-1.4-0.2-2.1C179.2,42.3,176.6,40.1,172.7,40z
	 M110.5,41.1c-2.5,1.6-3.4,4.1-3.4,7c0,0.3,0,0.6,0,0.9c0.1,3.5,2.5,6.5,6,7c1.3,0.2,2.8,0.1,4.1-0.1c1.4-0.2,2.5-0.9,3.5-2
	c1.8-2.1,2.4-4.5,2-7.2C122.1,40.9,115.5,37.9,110.5,41.1z M122.8,46.8c-0.7-5.9-7.3-9-12.3-5.7c-2.5,1.6-3.4,4.1-3.4,7
	c0,0.3,0,0.6,0,0.9c0.1,3.5,2.5,6.5,6,7c1.3,0.2,2.8,0.1,4.1-0.1c1.4-0.2,2.5-0.9,3.5-2C122.6,51.9,123.2,49.5,122.8,46.8z M180,46
	c-0.8-3.7-3.4-5.8-7.3-6c-3.1-0.1-5.7,0.9-7.3,3.7c-0.9,1.5-1,3.2-1,4.9c0,4.3,2.6,7.2,6.9,7.7c2.7,0.3,5.2-0.3,7.1-2.5
	c1.4-1.6,1.8-3.5,1.8-5.6C180.1,47.4,180.1,46.7,180,46z M180,46c-0.8-3.7-3.4-5.8-7.3-6c-3.1-0.1-5.7,0.9-7.3,3.7
	c-0.9,1.5-1,3.2-1,4.9c0,4.3,2.6,7.2,6.9,7.7c2.7,0.3,5.2-0.3,7.1-2.5c1.4-1.6,1.8-3.5,1.8-5.6C180.1,47.4,180.1,46.7,180,46z
	 M122.8,46.8c-0.7-5.9-7.3-9-12.3-5.7c-2.5,1.6-3.4,4.1-3.4,7c0,0.3,0,0.6,0,0.9c0.1,3.5,2.5,6.5,6,7c1.3,0.2,2.8,0.1,4.1-0.1
	c1.4-0.2,2.5-0.9,3.5-2C122.6,51.9,123.2,49.5,122.8,46.8z M122.8,46.8c-0.7-5.9-7.3-9-12.3-5.7c-2.5,1.6-3.4,4.1-3.4,7
	c0,0.3,0,0.6,0,0.9c0.1,3.5,2.5,6.5,6,7c1.3,0.2,2.8,0.1,4.1-0.1c1.4-0.2,2.5-0.9,3.5-2C122.6,51.9,123.2,49.5,122.8,46.8z
	 M122.8,46.8c-0.7-5.9-7.3-9-12.3-5.7c-2.5,1.6-3.4,4.1-3.4,7c0,0.3,0,0.6,0,0.9c0.1,3.5,2.5,6.5,6,7c1.3,0.2,2.8,0.1,4.1-0.1
	c1.4-0.2,2.5-0.9,3.5-2C122.6,51.9,123.2,49.5,122.8,46.8z"/>
</svg>
