<?xml version="1.0" encoding="utf-8"?>
<!-- Generator: Adobe Illustrator 22.1.0, SVG Export Plug-In . SVG Version: 6.00 Build 0)  -->
<svg version="1.1" id="Layer_1" xmlns="http://www.w3.org/2000/svg" xmlns:xlink="http://www.w3.org/1999/xlink" x="0px" y="0px"
	 viewBox="0 0 300 200" style="enable-background:new 0 0 300 200;" xml:space="preserve">
<style type="text/css">
	.st0{fill:#4796EC;}
</style>
<path d="M158.6,79.9v1.2c0-0.2,0-0.5,0-0.8C158.6,80.2,158.6,80.1,158.6,79.9z"/>
<path class="st0" d="M272.5,0H27.5C12.3,0,0,12.4,0,27.6v144.9c0,15.2,12.3,27.6,27.5,27.6h244.9c15.2,0,27.5-12.3,27.5-27.6V27.6
	C300,12.4,287.7,0,272.5,0z M57.3,91.8c12.7,0,23.1,10.2,23.1,22.8c0,1-0.2,1.9-0.3,2.8l22.8,11.3c4.1-4,9.8-6.4,16-6.4
	c3.5,0,6.9,0.9,9.9,2.2l8.9-8.8l19.8-19.5l2.3-2.3c-1.3-2.8-2.2-5.9-2.3-9.1v-1c0.2-12.4,10.5-22.5,23.1-22.5
	c4.2,0,8.2,1.1,11.6,3.1c0.4,0.3,0.8,0.5,1.2,0.8l7.9-5.8l18-13.4l1-0.7c-0.4-1.4-0.8-2.9-1-4.3c-0.1-0.8-0.2-1.6-0.2-2.4
	s0.1-1.7,0.2-2.6c1.3-11.4,11.2-20.2,23-20.2c12.7-0.1,23,10.2,23,22.8s-10.4,22.8-23.1,22.8c-4.8,0-9.1-1.4-12.8-3.8L219.4,65
	L204,76.5l-1.3,1c0.7,2.2,1.1,4.3,1.1,6.8c0,12.6-10.4,22.8-23.1,22.8c-3.5,0-6.9-0.9-9.9-2.3l-13.2,13L142.1,133l-2.4,2.3
	c1.4,3,2.3,6.2,2.3,9.8c0,1.3-0.1,2.6-0.3,3.8c-1.8,10.8-11.3,19-22.8,19c-11.4,0-20.9-8.2-22.8-19c-0.1-0.3-0.2-0.8-0.2-1.1
	c-0.1-0.9-0.2-1.7-0.2-2.7c0-0.6,0.1-1.2,0.2-1.7c0-0.4,0.1-0.7,0.2-1l-0.2-0.1l-15.5-7.6l-7.2-3.6c-4.1,4-9.8,6.4-16,6.4
	c-12.7,0-23.1-10.3-23.1-22.9C34,102.1,44.6,91.8,57.3,91.8z M274.1,188.1H25.9c-4.3,0-7.7-3.2-7.7-7.2c0-4,3.4-7.2,7.7-7.2h8.3
	v-0.1h239.9c4.3,0,7.7,3.3,7.7,7.3C281.8,184.8,278.4,188.1,274.1,188.1z"/>
</svg>
