<?xml version="1.0" encoding="utf-8"?>
<!-- Generator: Adobe Illustrator 22.1.0, SVG Export Plug-In . SVG Version: 6.00 Build 0)  -->
<svg version="1.1" id="Layer_1" xmlns="http://www.w3.org/2000/svg" xmlns:xlink="http://www.w3.org/1999/xlink" x="0px" y="0px"
	 viewBox="0 0 300.1 80" style="enable-background:new 0 0 300.1 80;" xml:space="preserve">
<style type="text/css">
	.st0{fill:#4796EC;}
</style>
<title>savebutton</title>
<path class="st0" d="M117.5,40c-0.2-2.7-1.3-5-3.7-6.3c-2.6-1.4-5.3-1.5-8-0.3c-3,1.3-4.2,3.9-4.4,7c-0.2,2.7,0.5,5.1,2.5,7
	c1.6,1.5,3.5,1.9,5.4,1.8h0.7c3.6,0,6.3-2.1,7.1-5.6C117.5,42.5,117.6,41.2,117.5,40z M150.5,32.7c-4.4,0-8.1,3.7-8.1,8.1
	c0,4.4,3.7,8.1,8.1,8.1c4.3,0,8.1-3.8,8.1-8.1C158.6,36.5,154.8,32.7,150.5,32.7z M150.5,32.7c-4.4,0-8.1,3.7-8.1,8.1
	c0,4.4,3.7,8.1,8.1,8.1c4.3,0,8.1-3.8,8.1-8.1C158.6,36.5,154.8,32.7,150.5,32.7z M117.5,40c-0.2-2.7-1.3-5-3.7-6.3
	c-2.6-1.4-5.3-1.5-8-0.3c-3,1.3-4.2,3.9-4.4,7c-0.2,2.7,0.5,5.1,2.5,7c1.6,1.5,3.5,1.9,5.4,1.8h0.7c3.6,0,6.3-2.1,7.1-5.6
	C117.5,42.5,117.6,41.2,117.5,40z M117.5,40c-0.2-2.7-1.3-5-3.7-6.3c-2.6-1.4-5.3-1.5-8-0.3c-3,1.3-4.2,3.9-4.4,7
	c-0.2,2.7,0.5,5.1,2.5,7c1.6,1.5,3.5,1.9,5.4,1.8h0.7c3.6,0,6.3-2.1,7.1-5.6C117.5,42.5,117.6,41.2,117.5,40z M150.5,32.7
	c-4.4,0-8.1,3.7-8.1,8.1c0,4.4,3.7,8.1,8.1,8.1c4.3,0,8.1-3.8,8.1-8.1C158.6,36.5,154.8,32.7,150.5,32.7z M150.5,32.7
	c-4.4,0-8.1,3.7-8.1,8.1c0,4.4,3.7,8.1,8.1,8.1c4.3,0,8.1-3.8,8.1-8.1C158.6,36.5,154.8,32.7,150.5,32.7z M117.5,40
	c-0.2-2.7-1.3-5-3.7-6.3c-2.6-1.4-5.3-1.5-8-0.3c-3,1.3-4.2,3.9-4.4,7c-0.2,2.7,0.5,5.1,2.5,7c1.6,1.5,3.5,1.9,5.4,1.8h0.7
	c3.6,0,6.3-2.1,7.1-5.6C117.5,42.5,117.6,41.2,117.5,40z M269.2,0H29.9C13.1,0,0,10.6,0,24.2v31.7C0,69.4,13.1,80,29.9,80h240.3
	c16.8,0,29.9-10.6,29.9-24.2V24.2C299.2,10.6,286.1,0,269.2,0z M85.3,56c0,1.3-0.1,1.4-1.4,1.4c-2.4,0-4.8,0-7.2,0
	c-1.3,0-1.4-0.1-1.4-1.4V8c0-1.4,0-1.5,1.5-1.5h7.1c1.4,0,1.5,0.1,1.5,1.4V56z M123.8,52c-1.9,2.3-4.2,3.9-7,4.9
	c-5.5,2-11,1.8-16.3-0.8c-5.4-2.7-8.3-7.2-8.9-13.2c-0.5-4.5,0.6-8.7,3.4-12.3c3-3.9,7.2-5.8,12-6.5c0.5-0.1,1-0.1,1.5-0.2
	c0.4,0,0.8,0,1.1,0c4.2,0.1,8.2,1,11.6,3.7c4,3.1,6.2,7.3,6.5,12.4C127.8,44.4,126.7,48.5,123.8,52z M167.8,53.9
	c0,2.6-0.2,5.2-0.9,7.7c-1.6,5.9-5.3,9.8-11.3,11.1c-6.5,1.5-13,1-19.2-1.6c-1.2-0.5-2.2-1.3-3.3-2c-0.5-0.3-0.5-0.7-0.2-1.1
	c1.5-2.3,3.1-4.6,4.6-6.9c0.4-0.6,0.7-0.7,1.3-0.2c3.1,2.4,6.5,3.9,10.5,3.7c2.4-0.1,4.7-0.5,6.4-2.4c1.3-1.4,2-3,2-4.9
	c0-1.2,0-2.4,0-3.8c-0.3,0.2-0.4,0.3-0.5,0.4c-2.8,3.2-6.5,4-10.6,3.7c-3.4-0.3-6.4-1.5-9-3.8c-2-1.7-3.4-3.8-4.2-6.3
	c-2.1-6.5-1.5-12.6,2.7-18.1c5.5-7.3,14.8-6.7,20-2.7c0.8,0.6,1.3,1.4,2,2.2c0.1-0.1,0.2-0.1,0.4-0.2c0-0.3,0.1-0.5,0.1-0.8
	c0-0.7,0-1.3,0-2c0-1.1,0.1-1.2,1.2-1.2c2.3,0,4.6,0,6.9,0c1,0,1.1,0.1,1.1,1.1C167.9,35.2,167.9,44.5,167.8,53.9z M186.1,56.2
	c0,1.1-0.1,1.2-1.2,1.2c-2.6,0-5.1,0-7.6,0c-1.1,0-1.2-0.1-1.2-1.2c0-5.1,0-10.1,0-15.2c0-5,0-10,0-15c0-1.2,0.1-1.3,1.3-1.3h7.6
	c1,0,1.2,0.2,1.2,1.2V56.2z M181.1,20.2c-3.3,0-5.8-2.5-5.8-5.8c0-3.3,2.5-5.8,5.8-5.8c3.3,0,5.8,2.5,5.8,5.8
	C186.9,17.7,184.4,20.2,181.1,20.2z M223.7,57.4c-2.5,0-5.1,0-7.6,0c-1.1,0-1.2-0.1-1.2-1.3c0-4.5,0-9,0-13.6c0-1.5,0-3-0.2-4.5
	c-0.1-1.6-0.5-3.2-1.9-4.3c-1.7-1.4-3.7-1.3-5.6-0.6c-2.1,0.7-3,2.4-3.4,4.4c-0.1,0.8-0.2,1.7-0.2,2.5c0,5.3,0,10.6,0,15.9
	c0,1.3-0.1,1.4-1.4,1.4c-2.5,0-5.1,0-7.6,0c-1,0-1.1-0.2-1.1-1.1c0-10.2,0-20.3,0-30.5c0-1,0.2-1.1,1.1-1.1c2.5,0,4.9,0,7.4,0
	c1,0,1.2,0.1,1.2,1.2c0,1,0,2,0,3.1c1-1,1.8-2,2.8-2.7c2.5-2,5.5-2.5,8.7-2.2c2,0.2,3.9,0.6,5.6,1.8c1.4,1,2.5,2.3,3.2,3.9
	c0.9,2.1,1.4,4.3,1.4,6.5c0.1,6.7,0.1,13.4,0.2,20C224.8,57.3,224.7,57.4,223.7,57.4z M150.5,32.7c-4.4,0-8.1,3.7-8.1,8.1
	c0,4.4,3.7,8.1,8.1,8.1c4.3,0,8.1-3.8,8.1-8.1C158.6,36.5,154.8,32.7,150.5,32.7z M113.8,33.8c-2.6-1.4-5.3-1.5-8-0.3
	c-3,1.3-4.2,3.9-4.4,7c-0.2,2.7,0.5,5.1,2.5,7c1.6,1.5,3.5,1.9,5.4,1.8h0.7c3.6,0,6.3-2.1,7.1-5.6c0.3-1.2,0.4-2.4,0.3-3.6
	C117.3,37.4,116.2,35.1,113.8,33.8z M117.5,40c-0.2-2.7-1.3-5-3.7-6.3c-2.6-1.4-5.3-1.5-8-0.3c-3,1.3-4.2,3.9-4.4,7
	c-0.2,2.7,0.5,5.1,2.5,7c1.6,1.5,3.5,1.9,5.4,1.8h0.7c3.6,0,6.3-2.1,7.1-5.6C117.5,42.5,117.6,41.2,117.5,40z M150.5,32.7
	c-4.4,0-8.1,3.7-8.1,8.1c0,4.4,3.7,8.1,8.1,8.1c4.3,0,8.1-3.8,8.1-8.1C158.6,36.5,154.8,32.7,150.5,32.7z M150.5,32.7
	c-4.4,0-8.1,3.7-8.1,8.1c0,4.4,3.7,8.1,8.1,8.1c4.3,0,8.1-3.8,8.1-8.1C158.6,36.5,154.8,32.7,150.5,32.7z M117.5,40
	c-0.2-2.7-1.3-5-3.7-6.3c-2.6-1.4-5.3-1.5-8-0.3c-3,1.3-4.2,3.9-4.4,7c-0.2,2.7,0.5,5.1,2.5,7c1.6,1.5,3.5,1.9,5.4,1.8h0.7
	c3.6,0,6.3-2.1,7.1-5.6C117.5,42.5,117.6,41.2,117.5,40z M117.5,40c-0.2-2.7-1.3-5-3.7-6.3c-2.6-1.4-5.3-1.5-8-0.3
	c-3,1.3-4.2,3.9-4.4,7c-0.2,2.7,0.5,5.1,2.5,7c1.6,1.5,3.5,1.9,5.4,1.8h0.7c3.6,0,6.3-2.1,7.1-5.6C117.5,42.5,117.6,41.2,117.5,40z
	 M117.5,40c-0.2-2.7-1.3-5-3.7-6.3c-2.6-1.4-5.3-1.5-8-0.3c-3,1.3-4.2,3.9-4.4,7c-0.2,2.7,0.5,5.1,2.5,7c1.6,1.5,3.5,1.9,5.4,1.8
	h0.7c3.6,0,6.3-2.1,7.1-5.6C117.5,42.5,117.6,41.2,117.5,40z"/>
</svg>
