<?xml version="1.0" encoding="utf-8"?>
<!-- Generator: Adobe Illustrator 22.1.0, SVG Export Plug-In . SVG Version: 6.00 Build 0)  -->
<svg version="1.1" id="Layer_1" xmlns="http://www.w3.org/2000/svg" xmlns:xlink="http://www.w3.org/1999/xlink" x="0px" y="0px"
	 viewBox="0 0 300.1 80" style="enable-background:new 0 0 300.1 80;" xml:space="preserve">
<style type="text/css">
	.st0{fill:#4796EC;}
</style>
<title>savebutton</title>
<path class="st0" d="M96,40.9c0-0.7-0.1-1.4-0.2-2c-0.1-0.5-0.2-1-0.4-1.4c-1.2-2.9-4-4.5-7.5-4.2s-5.8,2.3-6.5,5.4
	c-1.4,6.4,2.7,10.7,9.1,9.6C93.5,47.9,96.3,44.9,96,40.9z M126.2,33.3c-4,0-7.2,3.4-7.3,7.5c-0.1,4,3.6,7.6,7.3,7.3
	c3.9,0.3,7.5-3.4,7.5-7.3C133.7,36.7,130.3,33.2,126.2,33.3z M126.2,33.3c-4,0-7.2,3.4-7.3,7.5c-0.1,4,3.6,7.6,7.3,7.3
	c3.9,0.3,7.5-3.4,7.5-7.3C133.7,36.7,130.3,33.2,126.2,33.3z M96,40.9c0-0.7-0.1-1.4-0.2-2c-0.1-0.5-0.2-1-0.4-1.4
	c-1.2-2.9-4-4.5-7.5-4.2s-5.8,2.3-6.5,5.4c-1.4,6.4,2.7,10.7,9.1,9.6C93.5,47.9,96.3,44.9,96,40.9z M96,40.9c0-0.7-0.1-1.4-0.2-2
	c-0.1-0.5-0.2-1-0.4-1.4c-1.2-2.9-4-4.5-7.5-4.2s-5.8,2.3-6.5,5.4c-1.4,6.4,2.7,10.7,9.1,9.6C93.5,47.9,96.3,44.9,96,40.9z
	 M126.2,33.3c-4,0-7.2,3.4-7.3,7.5c-0.1,4,3.6,7.6,7.3,7.3c3.9,0.3,7.5-3.4,7.5-7.3C133.7,36.7,130.3,33.2,126.2,33.3z M170.8,35.6
	c-2-2.3-4.6-2.7-7.5-2.2c-3,0.6-5,2.7-5.4,5.6c-0.1,0.7,0,1.4-0.1,2c-0.3,4.1,3,7.7,7.3,7.3c0.7-0.1,1.4,0,2.1-0.2
	c2.5-0.5,4.2-2.1,4.9-4.5C173,40.9,172.8,38.1,170.8,35.6z M170.8,35.6c-2-2.3-4.6-2.7-7.5-2.2c-3,0.6-5,2.7-5.4,5.6
	c-0.1,0.7,0,1.4-0.1,2c-0.3,4.1,3,7.7,7.3,7.3c0.7-0.1,1.4,0,2.1-0.2c2.5-0.5,4.2-2.1,4.9-4.5C173,40.9,172.8,38.1,170.8,35.6z
	 M126.2,33.3c-4,0-7.2,3.4-7.3,7.5c-0.1,4,3.6,7.6,7.3,7.3c3.9,0.3,7.5-3.4,7.5-7.3C133.7,36.7,130.3,33.2,126.2,33.3z M96,40.9
	c0-0.7-0.1-1.4-0.2-2c-0.1-0.5-0.2-1-0.4-1.4c-1.2-2.9-4-4.5-7.5-4.2s-5.8,2.3-6.5,5.4c-1.4,6.4,2.7,10.7,9.1,9.6
	C93.5,47.9,96.3,44.9,96,40.9z M269.2,0H29.9C13.1,0,0,10.6,0,24.2v31.7C0,69.4,13.1,80,29.9,80h240.3c16.8,0,29.9-10.6,29.9-24.2
	V24.2C299.2,10.6,286.1,0,269.2,0z M66.4,54.1c0,1.7-0.1,1.8-1.8,1.8h-5.9c-1.5,0-1.6-0.1-1.6-1.6V11c0-1.6,0.1-1.7,1.7-1.7h5.9
	c1.5,0,1.7,0.1,1.7,1.7C66.4,11,66.4,54.1,66.4,54.1z M101.2,51.5c-2,2.2-4.5,3.6-7.3,4.4c-5.7,1.5-11.1,0.9-15.9-2.7
	c-3.6-2.6-5.5-6.3-5.9-10.8c-0.3-3.9,0.4-7.5,2.7-10.7c3.4-4.7,8.2-6.5,13.5-6.6c4.6,0,8.4,1.1,11.7,3.8c2.9,2.4,4.6,5.6,5.2,9.4
	C105.7,43.4,104.6,47.8,101.2,51.5z M142.2,52.5c0,2.5-0.3,5.1-0.9,7.5c-1.3,5.1-4.5,8.6-9.7,9.8c-7,1.6-13.8,1.3-20.2-2.3
	c-1.8-1-1.7-1-0.6-2.8c1.1-1.7,2.3-3.3,3.4-5c0.5-0.8,0.9-0.8,1.6-0.3c3.4,2.5,7.1,3.8,11.4,3c3.4-0.7,5.6-3.2,5.7-6.7
	c0-1,0-2,0-3.2c-0.4,0.3-0.7,0.4-0.8,0.6c-2.7,2.9-6.1,3.5-9.8,3c-6.8-0.9-11.4-5.5-12.4-12.4c-0.7-4.5,0.1-8.8,2.7-12.6
	c5.1-7.6,14.4-7,19.4-2.9c0.5,0.4,1,1,1.5,1.5c0.1,0,0.2,0,0.3-0.1c0-0.8,0-1.5,0-2.3c0-1.2,0.2-1.4,1.3-1.4c2,0,4,0,5.9,0
	c0.9,0,1.3,0.4,1.3,1.3C142.2,35.6,142.3,44.1,142.2,52.5z M167.9,56.4c-5.3,0.6-10.2-0.3-14.3-3.8c-2.3-2-3.9-4.5-4.6-7.4
	c-1.4-5.9-0.2-11.3,4.2-15.5c3.2-3,7.2-4.3,11.5-4.4c5-0.1,9.3,1.3,12.8,5c2.9,3,4.1,6.6,4.1,10.7C181.8,49.1,176.1,55.4,167.9,56.4
	z M216.2,54.5c0,0.9-0.3,1.3-1.3,1.3c-2.1,0-4.3,0-6.4,0c-0.9,0-1.3-0.4-1.3-1.3c0-0.8,0-1.5,0-2.3c-0.1,0-0.2,0-0.2-0.1
	c-0.5,0.6-1,1.3-1.7,1.9c-3.4,3-9.6,3.5-13.4,1.1c-2.8-1.8-4.1-4.5-4.3-7.7c-0.3-5.2-0.3-10.4-0.4-15.5c0-1.5,0-3,0-4.6
	c0-1.3,0.2-1.4,1.5-1.5c2.1,0,4.3,0,6.4,0c1.2,0,1.4,0.2,1.4,1.4c0,5,0,9.9,0,14.9c0,1.4,0.4,2.8,0.8,4c0.5,1.5,1.8,2.1,3.3,2.2
	c4,0.3,5.8-2.1,6-5.1c0.1-0.8,0.1-1.5,0.1-2.3c0-4.5,0-9,0-13.5c0-1.5,0.1-1.7,1.7-1.7c2.1,0,4.2,0,6.3,0c1,0,1.3,0.4,1.3,1.3
	C216.2,36.3,216.2,45.4,216.2,54.5z M243.1,32c0,0.9-0.4,1.3-1.3,1.3c-1.8,0-3.6,0-5.3,0c-0.9,0-1.4,0.4-1.3,1.3c0,3.5,0,7,0,10.5
	c0,2.5,1.3,3.8,3.9,3.7c1.1,0,2.1-0.1,3.2-0.3c0.7-0.1,0.9,0.1,0.9,0.7c0,1.9,0,3.8,0,5.6c0,0.4-0.5,1-0.9,1.1c-3.5,0.9-7,1-10.4,0
	c-4-1.2-5.9-4-6-8.2c-0.1-2.1,0-4.3,0-6.4l0,0c0-2.1,0-4.2,0-6.3c0-1.6-0.1-1.7-1.8-1.8c-1,0-1.9,0-2.9,0c-0.8,0-1.1-0.3-1.1-1.1
	c0-1.7,0-3.4,0-5.2c0-0.8,0.4-1.1,1.2-1.1c1.1,0,2.3,0,3.4,0c0.9,0,1.3-0.4,1.3-1.3c0-2,0-4,0-6c0-1.2,0.2-1.4,1.4-1.5
	c2.2,0,4.4,0,6.6,0c1,0,1.3,0.4,1.3,1.3c0,2,0,4,0,5.9c0,1.3,0.2,1.5,1.5,1.5c1.7,0,3.4,0,5.2,0c0.9,0,1.3,0.4,1.3,1.3
	C243,28.8,243,30.4,243.1,32z M163.3,33.5c-3,0.6-5,2.7-5.4,5.6c-0.1,0.7,0,1.4-0.1,2c-0.3,4.1,3,7.7,7.3,7.3c0.7-0.1,1.4,0,2.1-0.2
	c2.5-0.5,4.2-2.1,4.9-4.5c0.9-2.9,0.7-5.7-1.4-8.2C168.8,33.3,166.2,32.9,163.3,33.5z M126.2,33.3c-4,0-7.2,3.4-7.3,7.5
	c-0.1,4,3.6,7.6,7.3,7.3c3.9,0.3,7.5-3.4,7.5-7.3C133.7,36.7,130.3,33.2,126.2,33.3z M95.8,38.9c-0.1-0.5-0.2-1-0.4-1.4
	c-1.2-2.9-4-4.5-7.5-4.2s-5.8,2.3-6.5,5.4c-1.4,6.4,2.7,10.7,9.1,9.6c3-0.5,5.8-3.4,5.5-7.4C95.9,40.2,95.9,39.6,95.8,38.9z
	 M96,40.9c0-0.7-0.1-1.4-0.2-2c-0.1-0.5-0.2-1-0.4-1.4c-1.2-2.9-4-4.5-7.5-4.2s-5.8,2.3-6.5,5.4c-1.4,6.4,2.7,10.7,9.1,9.6
	C93.5,47.9,96.3,44.9,96,40.9z M126.2,33.3c-4,0-7.2,3.4-7.3,7.5c-0.1,4,3.6,7.6,7.3,7.3c3.9,0.3,7.5-3.4,7.5-7.3
	C133.7,36.7,130.3,33.2,126.2,33.3z M170.8,35.6c-2-2.3-4.6-2.7-7.5-2.2c-3,0.6-5,2.7-5.4,5.6c-0.1,0.7,0,1.4-0.1,2
	c-0.3,4.1,3,7.7,7.3,7.3c0.7-0.1,1.4,0,2.1-0.2c2.5-0.5,4.2-2.1,4.9-4.5C173,40.9,172.8,38.1,170.8,35.6z M170.8,35.6
	c-2-2.3-4.6-2.7-7.5-2.2c-3,0.6-5,2.7-5.4,5.6c-0.1,0.7,0,1.4-0.1,2c-0.3,4.1,3,7.7,7.3,7.3c0.7-0.1,1.4,0,2.1-0.2
	c2.5-0.5,4.2-2.1,4.9-4.5C173,40.9,172.8,38.1,170.8,35.6z M126.2,33.3c-4,0-7.2,3.4-7.3,7.5c-0.1,4,3.6,7.6,7.3,7.3
	c3.9,0.3,7.5-3.4,7.5-7.3C133.7,36.7,130.3,33.2,126.2,33.3z M96,40.9c0-0.7-0.1-1.4-0.2-2c-0.1-0.5-0.2-1-0.4-1.4
	c-1.2-2.9-4-4.5-7.5-4.2s-5.8,2.3-6.5,5.4c-1.4,6.4,2.7,10.7,9.1,9.6C93.5,47.9,96.3,44.9,96,40.9z M96,40.9c0-0.7-0.1-1.4-0.2-2
	c-0.1-0.5-0.2-1-0.4-1.4c-1.2-2.9-4-4.5-7.5-4.2s-5.8,2.3-6.5,5.4c-1.4,6.4,2.7,10.7,9.1,9.6C93.5,47.9,96.3,44.9,96,40.9z M96,40.9
	c0-0.7-0.1-1.4-0.2-2c-0.1-0.5-0.2-1-0.4-1.4c-1.2-2.9-4-4.5-7.5-4.2s-5.8,2.3-6.5,5.4c-1.4,6.4,2.7,10.7,9.1,9.6
	C93.5,47.9,96.3,44.9,96,40.9z"/>
</svg>
