<?xml version="1.0" encoding="utf-8"?>
<!-- Generator: Adobe Illustrator 22.1.0, SVG Export Plug-In . SVG Version: 6.00 Build 0)  -->
<svg version="1.1" id="Layer_1" xmlns="http://www.w3.org/2000/svg" xmlns:xlink="http://www.w3.org/1999/xlink" x="0px" y="0px"
	 viewBox="0 0 300.1 80" style="enable-background:new 0 0 300.1 80;" xml:space="preserve">
<title>savebutton</title>
<path d="M102.4,39c0.1,0.6,0.1,1.1,0.2,1.8C102.5,40.2,102.5,39.6,102.4,39z M97.7,47.3c1.5-0.2,3-1.2,3.9-2.6
	C100.7,46.1,99.2,47,97.7,47.3z M102.4,39c0.1,0.6,0.1,1.1,0.2,1.8C102.5,40.2,102.5,39.6,102.4,39z M97.7,47.3
	c1.5-0.2,3-1.2,3.9-2.6C100.7,46.1,99.2,47,97.7,47.3z M102.4,39c0.1,0.6,0.1,1.1,0.2,1.8C102.5,40.2,102.5,39.6,102.4,39z
	 M97.7,47.3c1.5-0.2,3-1.2,3.9-2.6C100.7,46.1,99.2,47,97.7,47.3z M156.9,40.9L156.9,40.9c0-0.1,0-0.2,0-0.4
	C156.9,40.6,156.9,40.8,156.9,40.9z M161.7,34.2c-2.6,0.5-4.4,2.4-4.8,4.9c0,0.1,0,0.2,0,0.3c0-0.1,0-0.1,0-0.2
	C157.3,36.7,159.1,34.8,161.7,34.2c1-0.1,2-0.2,3-0.1C163.7,34,162.7,34,161.7,34.2z M168.3,36.1C168.3,36.1,168.2,36.1,168.3,36.1
	c0.1,0.1,0.2,0.3,0.3,0.4C168.5,36.4,168.4,36.3,168.3,36.1z M156.9,40.9L156.9,40.9c0-0.1,0-0.2,0-0.4
	C156.9,40.6,156.9,40.8,156.9,40.9z M161.7,34.2c-2.6,0.5-4.4,2.4-4.8,4.9c0,0.1,0,0.2,0,0.3c0-0.1,0-0.1,0-0.2
	C157.3,36.7,159.1,34.8,161.7,34.2c1-0.1,2-0.2,3-0.1C163.7,34,162.7,34,161.7,34.2z M168.3,36.1C168.3,36.1,168.2,36.1,168.3,36.1
	c0.1,0.1,0.2,0.3,0.3,0.4C168.5,36.4,168.4,36.3,168.3,36.1z M102.4,39c0.1,0.6,0.1,1.1,0.2,1.8C102.5,40.2,102.5,39.6,102.4,39z
	 M97.7,47.3c1.5-0.2,3-1.2,3.9-2.6C100.7,46.1,99.2,47,97.7,47.3z M102.4,39c0.1,0.6,0.1,1.1,0.2,1.8
	C102.5,40.2,102.5,39.6,102.4,39z M97.7,47.3c1.5-0.2,3-1.2,3.9-2.6C100.7,46.1,99.2,47,97.7,47.3z M156.9,40.9L156.9,40.9
	c0-0.1,0-0.2,0-0.4C156.9,40.6,156.9,40.8,156.9,40.9z M161.7,34.2c-2.6,0.5-4.4,2.4-4.8,4.9c0,0.1,0,0.2,0,0.3c0-0.1,0-0.1,0-0.2
	C157.3,36.7,159.1,34.8,161.7,34.2c1-0.1,2-0.2,3-0.1C163.7,34,162.7,34,161.7,34.2z M168.3,36.1C168.3,36.1,168.2,36.1,168.3,36.1
	c0.1,0.1,0.2,0.3,0.3,0.4C168.5,36.4,168.4,36.3,168.3,36.1z M169.4,43.2c-0.6,2.1-2.1,3.5-4.3,4c-0.6,0.2-1.2,0.1-1.8,0.2
	c-3.4,0.3-6.1-2.2-6.4-5.4c0.3,3.2,3,5.8,6.4,5.5c0.6-0.1,1.2,0,1.8-0.2C167.3,46.8,168.8,45.4,169.4,43.2c0.1-0.3,0.2-0.7,0.3-1.1
	C169.7,42.4,169.6,42.8,169.4,43.2z M156.9,40.9L156.9,40.9c0-0.1,0-0.2,0-0.4C156.9,40.6,156.9,40.8,156.9,40.9z M161.7,34.2
	c-2.6,0.5-4.4,2.4-4.8,4.9c0,0.1,0,0.2,0,0.3c0-0.1,0-0.1,0-0.2C157.3,36.7,159.1,34.8,161.7,34.2c1-0.1,2-0.2,3-0.1
	C163.7,34,162.7,34,161.7,34.2z M168.3,36.1C168.3,36.1,168.2,36.1,168.3,36.1c0.1,0.1,0.2,0.3,0.3,0.4
	C168.5,36.4,168.4,36.3,168.3,36.1z M169.4,43.2c-0.6,2.1-2.1,3.5-4.3,4c-0.6,0.2-1.2,0.1-1.8,0.2c-3.4,0.3-6.1-2.2-6.4-5.4
	c0.3,3.2,3,5.8,6.4,5.5c0.6-0.1,1.2,0,1.8-0.2C167.3,46.8,168.8,45.4,169.4,43.2c0.1-0.3,0.2-0.7,0.3-1.1
	C169.7,42.4,169.6,42.8,169.4,43.2z M102.4,39c0.1,0.6,0.1,1.1,0.2,1.8C102.5,40.2,102.5,39.6,102.4,39z M97.7,47.3
	c1.5-0.2,3-1.2,3.9-2.6C100.7,46.1,99.2,47,97.7,47.3z M102.4,39c0.1,0.6,0.1,1.1,0.2,1.8C102.5,40.2,102.5,39.6,102.4,39z
	 M97.7,47.3c1.5-0.2,3-1.2,3.9-2.6C100.7,46.1,99.2,47,97.7,47.3z M156.9,40.9L156.9,40.9c0-0.1,0-0.2,0-0.4
	C156.9,40.6,156.9,40.8,156.9,40.9z M161.7,34.2c-2.6,0.5-4.4,2.4-4.8,4.9c0,0.1,0,0.2,0,0.3c0-0.1,0-0.1,0-0.2
	C157.3,36.7,159.1,34.8,161.7,34.2c1-0.1,2-0.2,3-0.1C163.7,34,162.7,34,161.7,34.2z M168.3,36.1C168.3,36.1,168.2,36.1,168.3,36.1
	c0.1,0.1,0.2,0.3,0.3,0.4C168.5,36.4,168.4,36.3,168.3,36.1z M169.4,43.2c-0.6,2.1-2.1,3.5-4.3,4c-0.6,0.2-1.2,0.1-1.8,0.2
	c-3.4,0.3-6.1-2.2-6.4-5.4c0.3,3.2,3,5.8,6.4,5.5c0.6-0.1,1.2,0,1.8-0.2C167.3,46.8,168.8,45.4,169.4,43.2c0.1-0.3,0.2-0.7,0.3-1.1
	C169.7,42.4,169.6,42.8,169.4,43.2z M156.9,40.9L156.9,40.9c0-0.1,0-0.2,0-0.4C156.9,40.6,156.9,40.8,156.9,40.9z M161.7,34.2
	c-2.6,0.5-4.4,2.4-4.8,4.9c0,0.1,0,0.2,0,0.3c0-0.1,0-0.1,0-0.2C157.3,36.7,159.1,34.8,161.7,34.2c1-0.1,2-0.2,3-0.1
	C163.7,34,162.7,34,161.7,34.2z M168.3,36.1C168.3,36.1,168.2,36.1,168.3,36.1c0.1,0.1,0.2,0.3,0.3,0.4
	C168.5,36.4,168.4,36.3,168.3,36.1z M169.4,43.2c-0.6,2.1-2.1,3.5-4.3,4c-0.6,0.2-1.2,0.1-1.8,0.2c-3.4,0.3-6.1-2.2-6.4-5.4
	c0.3,3.2,3,5.8,6.4,5.5c0.6-0.1,1.2,0,1.8-0.2C167.3,46.8,168.8,45.4,169.4,43.2c0.1-0.3,0.2-0.7,0.3-1.1
	C169.7,42.4,169.6,42.8,169.4,43.2z M102.4,39c0.1,0.6,0.1,1.1,0.2,1.8C102.5,40.2,102.5,39.6,102.4,39z M97.7,47.3
	c1.5-0.2,3-1.2,3.9-2.6C100.7,46.1,99.2,47,97.7,47.3z M102.4,39c0.1,0.6,0.1,1.1,0.2,1.8C102.5,40.2,102.5,39.6,102.4,39z
	 M97.7,47.3c1.5-0.2,3-1.2,3.9-2.6C100.7,46.1,99.2,47,97.7,47.3z M156.9,40.9L156.9,40.9c0-0.1,0-0.2,0-0.4
	C156.9,40.6,156.9,40.8,156.9,40.9z M161.7,34.2c-2.6,0.5-4.4,2.4-4.8,4.9c0,0.1,0,0.2,0,0.3c0-0.1,0-0.1,0-0.2
	C157.3,36.7,159.1,34.8,161.7,34.2c1-0.1,2-0.2,3-0.1C163.7,34,162.7,34,161.7,34.2z M168.3,36.1C168.3,36.1,168.2,36.1,168.3,36.1
	c0.1,0.1,0.2,0.3,0.3,0.4C168.5,36.4,168.4,36.3,168.3,36.1z M169.4,43.2c-0.6,2.1-2.1,3.5-4.3,4c-0.6,0.2-1.2,0.1-1.8,0.2
	c-3.4,0.3-6.1-2.2-6.4-5.4c0.3,3.2,3,5.8,6.4,5.5c0.6-0.1,1.2,0,1.8-0.2C167.3,46.8,168.8,45.4,169.4,43.2c0.1-0.3,0.2-0.7,0.3-1.1
	C169.7,42.4,169.6,42.8,169.4,43.2z M156.9,40.9L156.9,40.9c0-0.1,0-0.2,0-0.4C156.9,40.6,156.9,40.8,156.9,40.9z M161.7,34.2
	c-2.6,0.5-4.4,2.4-4.8,4.9c0,0.1,0,0.2,0,0.3c0-0.1,0-0.1,0-0.2C157.3,36.7,159.1,34.8,161.7,34.2c1-0.1,2-0.2,3-0.1
	C163.7,34,162.7,34,161.7,34.2z M168.3,36.1C168.3,36.1,168.2,36.1,168.3,36.1c0.1,0.1,0.2,0.3,0.3,0.4
	C168.5,36.4,168.4,36.3,168.3,36.1z M169.4,43.2c-0.6,2.1-2.1,3.5-4.3,4c-0.6,0.2-1.2,0.1-1.8,0.2c-3.4,0.3-6.1-2.2-6.4-5.4
	c0.3,3.2,3,5.8,6.4,5.5c0.6-0.1,1.2,0,1.8-0.2C167.3,46.8,168.8,45.4,169.4,43.2c0.1-0.3,0.2-0.7,0.3-1.1
	C169.7,42.4,169.6,42.8,169.4,43.2z M102.4,39c0.1,0.6,0.1,1.1,0.2,1.8C102.5,40.2,102.5,39.6,102.4,39z M97.7,47.3
	c1.5-0.2,3-1.2,3.9-2.6C100.7,46.1,99.2,47,97.7,47.3z M102.4,39c0.1,0.6,0.1,1.1,0.2,1.8C102.5,40.2,102.5,39.6,102.4,39z
	 M97.7,47.3c1.5-0.2,3-1.2,3.9-2.6C100.7,46.1,99.2,47,97.7,47.3z M156.9,40.9L156.9,40.9c0-0.1,0-0.2,0-0.4
	C156.9,40.6,156.9,40.8,156.9,40.9z M161.7,34.2c-2.6,0.5-4.4,2.4-4.8,4.9c0,0.1,0,0.2,0,0.3c0-0.1,0-0.1,0-0.2
	C157.3,36.7,159.1,34.8,161.7,34.2c1-0.1,2-0.2,3-0.1C163.7,34,162.7,34,161.7,34.2z M168.3,36.1C168.3,36.1,168.2,36.1,168.3,36.1
	c0.1,0.1,0.2,0.3,0.3,0.4C168.5,36.4,168.4,36.3,168.3,36.1z M169.4,43.2c-0.6,2.1-2.1,3.5-4.3,4c-0.6,0.2-1.2,0.1-1.8,0.2
	c-3.4,0.3-6.1-2.2-6.4-5.4c0.3,3.2,3,5.8,6.4,5.5c0.6-0.1,1.2,0,1.8-0.2C167.3,46.8,168.8,45.4,169.4,43.2c0.1-0.3,0.2-0.7,0.3-1.1
	C169.7,42.4,169.6,42.8,169.4,43.2z M169.4,43.2c-0.6,2.1-2.1,3.5-4.3,4c-0.6,0.2-1.2,0.1-1.8,0.2c-3.4,0.3-6.1-2.2-6.4-5.4
	c0.3,3.2,3,5.8,6.4,5.5c0.6-0.1,1.2,0,1.8-0.2C167.3,46.8,168.8,45.4,169.4,43.2c0.1-0.3,0.2-0.7,0.3-1.1
	C169.7,42.4,169.6,42.8,169.4,43.2z M168.3,36.1C168.3,36.1,168.2,36.1,168.3,36.1c0.1,0.1,0.2,0.3,0.3,0.4
	C168.5,36.4,168.4,36.3,168.3,36.1z M161.7,34.2c-2.6,0.5-4.4,2.4-4.8,4.9c0,0.1,0,0.2,0,0.3c0-0.1,0-0.1,0-0.2
	C157.3,36.7,159.1,34.8,161.7,34.2c1-0.1,2-0.2,3-0.1C163.7,34,162.7,34,161.7,34.2z M156.9,40.9L156.9,40.9c0-0.1,0-0.2,0-0.4
	C156.9,40.6,156.9,40.8,156.9,40.9z M102.4,39c0.1,0.6,0.1,1.1,0.2,1.8C102.5,40.2,102.5,39.6,102.4,39z M97.7,47.3
	c1.5-0.2,3-1.2,3.9-2.6C100.7,46.1,99.2,47,97.7,47.3z M97.7,47.3c1.5-0.2,3-1.2,3.9-2.6C100.7,46.1,99.2,47,97.7,47.3z M102.4,39
	c0.1,0.6,0.1,1.1,0.2,1.8C102.5,40.2,102.5,39.6,102.4,39z M156.9,40.9L156.9,40.9c0-0.1,0-0.2,0-0.4
	C156.9,40.6,156.9,40.8,156.9,40.9z M161.7,34.2c-2.6,0.5-4.4,2.4-4.8,4.9c0,0.1,0,0.2,0,0.3c0-0.1,0-0.1,0-0.2
	C157.3,36.7,159.1,34.8,161.7,34.2c1-0.1,2-0.2,3-0.1C163.7,34,162.7,34,161.7,34.2z M168.3,36.1C168.3,36.1,168.2,36.1,168.3,36.1
	c0.1,0.1,0.2,0.3,0.3,0.4C168.5,36.4,168.4,36.3,168.3,36.1z M169.4,43.2c-0.6,2.1-2.1,3.5-4.3,4c-0.6,0.2-1.2,0.1-1.8,0.2
	c-3.4,0.3-6.1-2.2-6.4-5.4c0.3,3.2,3,5.8,6.4,5.5c0.6-0.1,1.2,0,1.8-0.2C167.3,46.8,168.8,45.4,169.4,43.2c0.1-0.3,0.2-0.7,0.3-1.1
	C169.7,42.4,169.6,42.8,169.4,43.2z M97.7,47.3c1.5-0.2,3-1.2,3.9-2.6C100.7,46.1,99.2,47,97.7,47.3z M102.4,39
	c0.1,0.6,0.1,1.1,0.2,1.8C102.5,40.2,102.5,39.6,102.4,39z M156.9,40.9L156.9,40.9c0-0.1,0-0.2,0-0.4
	C156.9,40.6,156.9,40.8,156.9,40.9z M161.7,34.2c-2.6,0.5-4.4,2.4-4.8,4.9c0,0.1,0,0.2,0,0.3c0-0.1,0-0.1,0-0.2
	C157.3,36.7,159.1,34.8,161.7,34.2c1-0.1,2-0.2,3-0.1C163.7,34,162.7,34,161.7,34.2z M168.3,36.1C168.3,36.1,168.2,36.1,168.3,36.1
	c0.1,0.1,0.2,0.3,0.3,0.4C168.5,36.4,168.4,36.3,168.3,36.1z M169.4,43.2c-0.6,2.1-2.1,3.5-4.3,4c-0.6,0.2-1.2,0.1-1.8,0.2
	c-3.4,0.3-6.1-2.2-6.4-5.4c0.3,3.2,3,5.8,6.4,5.5c0.6-0.1,1.2,0,1.8-0.2C167.3,46.8,168.8,45.4,169.4,43.2c0.1-0.3,0.2-0.7,0.3-1.1
	C169.7,42.4,169.6,42.8,169.4,43.2z M169.4,43.2c-0.6,2.1-2.1,3.5-4.3,4c-0.6,0.2-1.2,0.1-1.8,0.2c-3.4,0.3-6.1-2.2-6.4-5.4
	c0.3,3.2,3,5.8,6.4,5.5c0.6-0.1,1.2,0,1.8-0.2C167.3,46.8,168.8,45.4,169.4,43.2c0.1-0.3,0.2-0.7,0.3-1.1
	C169.7,42.4,169.6,42.8,169.4,43.2z M168.3,36.1C168.3,36.1,168.2,36.1,168.3,36.1c0.1,0.1,0.2,0.3,0.3,0.4
	C168.5,36.4,168.4,36.3,168.3,36.1z M161.7,34.2c-2.6,0.5-4.4,2.4-4.8,4.9c0,0.1,0,0.2,0,0.3c0-0.1,0-0.1,0-0.2
	C157.3,36.7,159.1,34.8,161.7,34.2c1-0.1,2-0.2,3-0.1C163.7,34,162.7,34,161.7,34.2z M156.9,40.9L156.9,40.9c0-0.1,0-0.2,0-0.4
	C156.9,40.6,156.9,40.8,156.9,40.9z M102.4,39c0.1,0.6,0.1,1.1,0.2,1.8C102.5,40.2,102.5,39.6,102.4,39z M97.7,47.3
	c1.5-0.2,3-1.2,3.9-2.6C100.7,46.1,99.2,47,97.7,47.3z M102.4,39c0.1,0.6,0.1,1.1,0.2,1.8C102.5,40.2,102.5,39.6,102.4,39z
	 M97.7,47.3c1.5-0.2,3-1.2,3.9-2.6C100.7,46.1,99.2,47,97.7,47.3z M156.9,40.9L156.9,40.9c0-0.1,0-0.2,0-0.4
	C156.9,40.6,156.9,40.8,156.9,40.9z M161.7,34.2c-2.6,0.5-4.4,2.4-4.8,4.9c0,0.1,0,0.2,0,0.3c0-0.1,0-0.1,0-0.2
	C157.3,36.7,159.1,34.8,161.7,34.2c1-0.1,2-0.2,3-0.1C163.7,34,162.7,34,161.7,34.2z M168.3,36.1C168.3,36.1,168.2,36.1,168.3,36.1
	c0.1,0.1,0.2,0.3,0.3,0.4C168.5,36.4,168.4,36.3,168.3,36.1z M169.4,43.2c-0.6,2.1-2.1,3.5-4.3,4c-0.6,0.2-1.2,0.1-1.8,0.2
	c-3.4,0.3-6.1-2.2-6.4-5.4c0.3,3.2,3,5.8,6.4,5.5c0.6-0.1,1.2,0,1.8-0.2C167.3,46.8,168.8,45.4,169.4,43.2c0.1-0.3,0.2-0.7,0.3-1.1
	C169.7,42.4,169.6,42.8,169.4,43.2z M156.9,40.9L156.9,40.9c0-0.1,0-0.2,0-0.4C156.9,40.6,156.9,40.8,156.9,40.9z M161.7,34.2
	c-2.6,0.5-4.4,2.4-4.8,4.9c0,0.1,0,0.2,0,0.3c0-0.1,0-0.1,0-0.2C157.3,36.7,159.1,34.8,161.7,34.2c1-0.1,2-0.2,3-0.1
	C163.7,34,162.7,34,161.7,34.2z M168.3,36.1C168.3,36.1,168.2,36.1,168.3,36.1c0.1,0.1,0.2,0.3,0.3,0.4
	C168.5,36.4,168.4,36.3,168.3,36.1z M169.4,43.2c-0.6,2.1-2.1,3.5-4.3,4c-0.6,0.2-1.2,0.1-1.8,0.2c-3.4,0.3-6.1-2.2-6.4-5.4
	c0.3,3.2,3,5.8,6.4,5.5c0.6-0.1,1.2,0,1.8-0.2C167.3,46.8,168.8,45.4,169.4,43.2c0.1-0.3,0.2-0.7,0.3-1.1
	C169.7,42.4,169.6,42.8,169.4,43.2z M102.4,39c0.1,0.6,0.1,1.1,0.2,1.8C102.5,40.2,102.5,39.6,102.4,39z M97.7,47.3
	c1.5-0.2,3-1.2,3.9-2.6C100.7,46.1,99.2,47,97.7,47.3z M102.4,39c0.1,0.6,0.1,1.1,0.2,1.8C102.5,40.2,102.5,39.6,102.4,39z
	 M97.7,47.3c1.5-0.2,3-1.2,3.9-2.6C100.7,46.1,99.2,47,97.7,47.3z M156.9,40.9L156.9,40.9c0-0.1,0-0.2,0-0.4
	C156.9,40.6,156.9,40.8,156.9,40.9z M161.7,34.2c-2.6,0.5-4.4,2.4-4.8,4.9c0,0.1,0,0.2,0,0.3c0-0.1,0-0.1,0-0.2
	C157.3,36.7,159.1,34.8,161.7,34.2c1-0.1,2-0.2,3-0.1C163.7,34,162.7,34,161.7,34.2z M168.3,36.1C168.3,36.1,168.2,36.1,168.3,36.1
	c0.1,0.1,0.2,0.3,0.3,0.4C168.5,36.4,168.4,36.3,168.3,36.1z M169.4,43.2c-0.6,2.1-2.1,3.5-4.3,4c-0.6,0.2-1.2,0.1-1.8,0.2
	c-3.4,0.3-6.1-2.2-6.4-5.4c0.3,3.2,3,5.8,6.4,5.5c0.6-0.1,1.2,0,1.8-0.2C167.3,46.8,168.8,45.4,169.4,43.2c0.1-0.3,0.2-0.7,0.3-1.1
	C169.7,42.4,169.6,42.8,169.4,43.2z M156.9,40.9L156.9,40.9c0-0.1,0-0.2,0-0.4C156.9,40.6,156.9,40.8,156.9,40.9z M161.7,34.2
	c-2.6,0.5-4.4,2.4-4.8,4.9c0,0.1,0,0.2,0,0.3c0-0.1,0-0.1,0-0.2C157.3,36.7,159.1,34.8,161.7,34.2c1-0.1,2-0.2,3-0.1
	C163.7,34,162.7,34,161.7,34.2z M168.3,36.1C168.3,36.1,168.2,36.1,168.3,36.1c0.1,0.1,0.2,0.3,0.3,0.4
	C168.5,36.4,168.4,36.3,168.3,36.1z M169.4,43.2c-0.6,2.1-2.1,3.5-4.3,4c-0.6,0.2-1.2,0.1-1.8,0.2c-3.4,0.3-6.1-2.2-6.4-5.4
	c0.3,3.2,3,5.8,6.4,5.5c0.6-0.1,1.2,0,1.8-0.2C167.3,46.8,168.8,45.4,169.4,43.2c0.1-0.3,0.2-0.7,0.3-1.1
	C169.7,42.4,169.6,42.8,169.4,43.2z M102.4,39c0.1,0.6,0.1,1.1,0.2,1.8C102.5,40.2,102.5,39.6,102.4,39z M97.7,47.3
	c1.5-0.2,3-1.2,3.9-2.6C100.7,46.1,99.2,47,97.7,47.3z M102.4,39c0.1,0.6,0.1,1.1,0.2,1.8C102.5,40.2,102.5,39.6,102.4,39z
	 M97.7,47.3c1.5-0.2,3-1.2,3.9-2.6C100.7,46.1,99.2,47,97.7,47.3z M156.9,40.9L156.9,40.9c0-0.1,0-0.2,0-0.4
	C156.9,40.6,156.9,40.8,156.9,40.9z M161.7,34.2c-2.6,0.5-4.4,2.4-4.8,4.9c0,0.1,0,0.2,0,0.3c0-0.1,0-0.1,0-0.2
	C157.3,36.7,159.1,34.8,161.7,34.2c1-0.1,2-0.2,3-0.1C163.7,34,162.7,34,161.7,34.2z M168.3,36.1C168.3,36.1,168.2,36.1,168.3,36.1
	c0.1,0.1,0.2,0.3,0.3,0.4C168.5,36.4,168.4,36.3,168.3,36.1z M169.4,43.2c-0.6,2.1-2.1,3.5-4.3,4c-0.6,0.2-1.2,0.1-1.8,0.2
	c-3.4,0.3-6.1-2.2-6.4-5.4c0.3,3.2,3,5.8,6.4,5.5c0.6-0.1,1.2,0,1.8-0.2C167.3,46.8,168.8,45.4,169.4,43.2c0.1-0.3,0.2-0.7,0.3-1.1
	C169.7,42.4,169.6,42.8,169.4,43.2z M156.9,40.9L156.9,40.9c0-0.1,0-0.2,0-0.4C156.9,40.6,156.9,40.8,156.9,40.9z M161.7,34.2
	c-2.6,0.5-4.4,2.4-4.8,4.9c0,0.1,0,0.2,0,0.3c0-0.1,0-0.1,0-0.2C157.3,36.7,159.1,34.8,161.7,34.2c1-0.1,2-0.2,3-0.1
	C163.7,34,162.7,34,161.7,34.2z M168.3,36.1C168.3,36.1,168.2,36.1,168.3,36.1c0.1,0.1,0.2,0.3,0.3,0.4
	C168.5,36.4,168.4,36.3,168.3,36.1z M169.4,43.2c-0.6,2.1-2.1,3.5-4.3,4c-0.6,0.2-1.2,0.1-1.8,0.2c-3.4,0.3-6.1-2.2-6.4-5.4
	c0.3,3.2,3,5.8,6.4,5.5c0.6-0.1,1.2,0,1.8-0.2C167.3,46.8,168.8,45.4,169.4,43.2c0.1-0.3,0.2-0.7,0.3-1.1
	C169.7,42.4,169.6,42.8,169.4,43.2z M102.4,39c0.1,0.6,0.1,1.1,0.2,1.8C102.5,40.2,102.5,39.6,102.4,39z M97.7,47.3
	c1.5-0.2,3-1.2,3.9-2.6C100.7,46.1,99.2,47,97.7,47.3z M102.4,39c0.1,0.6,0.1,1.1,0.2,1.8C102.5,40.2,102.5,39.6,102.4,39z
	 M97.7,47.3c1.5-0.2,3-1.2,3.9-2.6C100.7,46.1,99.2,47,97.7,47.3z M156.9,40.9L156.9,40.9c0-0.1,0-0.2,0-0.4
	C156.9,40.6,156.9,40.8,156.9,40.9z M161.7,34.2c-2.6,0.5-4.4,2.4-4.8,4.9c0,0.1,0,0.2,0,0.3c0-0.1,0-0.1,0-0.2
	C157.3,36.7,159.1,34.8,161.7,34.2c1-0.1,2-0.2,3-0.1C163.7,34,162.7,34,161.7,34.2z M168.3,36.1C168.3,36.1,168.2,36.1,168.3,36.1
	c0.1,0.1,0.2,0.3,0.3,0.4C168.5,36.4,168.4,36.3,168.3,36.1z M169.4,43.2c-0.6,2.1-2.1,3.5-4.3,4c-0.6,0.2-1.2,0.1-1.8,0.2
	c-3.4,0.3-6.1-2.2-6.4-5.4c0.3,3.2,3,5.8,6.4,5.5c0.6-0.1,1.2,0,1.8-0.2C167.3,46.8,168.8,45.4,169.4,43.2c0.1-0.3,0.2-0.7,0.3-1.1
	C169.7,42.4,169.6,42.8,169.4,43.2z M169.4,43.2c-0.6,2.1-2.1,3.5-4.3,4c-0.6,0.2-1.2,0.1-1.8,0.2c-3.4,0.3-6.1-2.2-6.4-5.4
	c0.3,3.2,3,5.8,6.4,5.5c0.6-0.1,1.2,0,1.8-0.2C167.3,46.8,168.8,45.4,169.4,43.2c0.1-0.3,0.2-0.7,0.3-1.1
	C169.7,42.4,169.6,42.8,169.4,43.2z M102.4,39c0.1,0.6,0.1,1.1,0.2,1.8C102.5,40.2,102.5,39.6,102.4,39z M97.7,47.3
	c1.5-0.2,3-1.2,3.9-2.6C100.7,46.1,99.2,47,97.7,47.3z M156.9,40.9L156.9,40.9c0-0.1,0-0.2,0-0.4C156.9,40.6,156.9,40.8,156.9,40.9z
	 M161.7,34.2c-2.6,0.5-4.4,2.4-4.8,4.9c0,0.1,0,0.2,0,0.3c0-0.1,0-0.1,0-0.2C157.3,36.7,159.1,34.8,161.7,34.2c1-0.1,2-0.2,3-0.1
	C163.7,34,162.7,34,161.7,34.2z M168.3,36.1C168.3,36.1,168.2,36.1,168.3,36.1c0.1,0.1,0.2,0.3,0.3,0.4
	C168.5,36.4,168.4,36.3,168.3,36.1z M156.9,40.9L156.9,40.9c0-0.1,0-0.2,0-0.4C156.9,40.6,156.9,40.8,156.9,40.9z M161.7,34.2
	c-2.6,0.5-4.4,2.4-4.8,4.9c0,0.1,0,0.2,0,0.3c0-0.1,0-0.1,0-0.2C157.3,36.7,159.1,34.8,161.7,34.2c1-0.1,2-0.2,3-0.1
	C163.7,34,162.7,34,161.7,34.2z M168.3,36.1C168.3,36.1,168.2,36.1,168.3,36.1c0.1,0.1,0.2,0.3,0.3,0.4
	C168.5,36.4,168.4,36.3,168.3,36.1z M102.4,39c0.1,0.6,0.1,1.1,0.2,1.8C102.5,40.2,102.5,39.6,102.4,39z M97.7,47.3
	c1.5-0.2,3-1.2,3.9-2.6C100.7,46.1,99.2,47,97.7,47.3z M102.4,39c0.1,0.6,0.1,1.1,0.2,1.8C102.5,40.2,102.5,39.6,102.4,39z
	 M97.7,47.3c1.5-0.2,3-1.2,3.9-2.6C100.7,46.1,99.2,47,97.7,47.3z M102.4,39c0.1,0.6,0.1,1.1,0.2,1.8
	C102.5,40.2,102.5,39.6,102.4,39z M97.7,47.3c1.5-0.2,3-1.2,3.9-2.6C100.7,46.1,99.2,47,97.7,47.3z"/>
<path d="M300,27.8c-0.1-9.1-4.4-16.3-12.4-21.5C281,1.9,273.5,0,265.4,0C189.2,0,113,0,36.7,0c-2.2,0-4.4,0-6.7,0.2
	C24.3,0.6,18.9,2,14,4.8C4.8,10-0.2,17.4,0,27.5c0.2,8.8,0,17.6,0,26.3c0,7.9,3.7,14.2,10.3,19C16.8,77.7,24.6,80,33,80
	c39,0,78,0,117,0h116.4c7,0,13.6-1.5,19.7-4.8c5.7-3.1,9.8-7.3,12.3-13c1.4-3.1,1.7-6.4,1.7-9.8C300.1,44.2,300.1,36,300,27.8z
	 M290.4,53.9c-0.1,6.2-3.6,10.6-9.2,13.7c-2.9,1.6-6,2.6-9.2,3.1c-1.7,0.3-3.4,0.4-5.1,0.4c-39,0-77.9,0-116.9,0c-39,0-78,0-117,0
	c-1.6,0-3.2-0.1-4.7-0.3c-5-0.7-9.6-2.6-13.5-6c-3.2-2.8-5.1-6.2-5.1-10.3c0-9.4,0-18.8,0-28.2c0-4.8,2.1-8.6,6-11.7
	c3.7-3,8-4.7,12.6-5.3c1.5-0.2,3-0.3,4.5-0.3c77.8,0,155.7,0,233.5,0c1.7,0,3.4,0.1,5,0.4c5,0.8,9.6,2.8,13.5,6.2
	c3.7,3.2,5.7,7.2,5.7,11.9C290.4,36.2,290.5,45,290.4,53.9z"/>
<g>
	<path d="M231.9,48.1V53c0,0.3-0.4,0.9-0.8,1c-3.1,0.8-6.2,0.9-9.1,0c-3.5-1.1-5.2-3.5-5.3-7.2c-0.1-1.9,0-3.8,0-5.6v-5.5
		c0-1.4-0.1-1.5-1.6-1.6h-2.6c-0.7,0-1-0.3-1-1v-4.6c0-0.7,0.3-1,1.1-1h3c0.8,0,1.1-0.4,1.1-1.2v-5.3c0-1.1,0.2-1.2,1.2-1.3h5.8
		c0.9,0,1.1,0.3,1.1,1.1v5.2c0,1.1,0.2,1.3,1.3,1.3h4.6c0.8,0,1.2,0.4,1.2,1.1c-0.3,1.6-0.3,3-0.2,4.4c0,0.8-0.3,1.1-1.1,1.1H226
		c-0.8,0-1.2,0.4-1.1,1.1v9.2c0,2.2,1.1,3.3,3.4,3.3c1,0,1.8-0.1,2.8-0.3C231.8,47.4,231.9,47.6,231.9,48.1z"/>
	<path d="M208.2,52.8c0,0.8-0.3,1.1-1.1,1.1h-5.6c-0.8,0-1.1-0.4-1.1-1.1v-2c-0.1,0-0.2,0-0.2-0.1c-0.4,0.5-0.9,1.1-1.5,1.7
		c-3,2.6-8.4,3.1-11.8,1c-2.5-1.6-3.6-4-3.8-6.8c-0.3-4.6-0.3-9.2-0.3-13.6v-4c0-1.2,0.2-1.2,1.3-1.3h5.6c1.1,0,1.2,0.2,1.2,1.2
		v13.1c0,1.2,0.4,2.5,0.7,3.5c0.4,1.3,1.6,1.9,2.9,1.9c3.5,0.3,5.1-1.8,5.3-4.5c0.1-0.7,0.1-1.3,0.1-2V28.9c0-1.3,0.1-1.5,1.5-1.5
		h5.5c0.9,0,1.2,0.4,1.2,1.1C208.2,36.8,208.2,44.8,208.2,52.8z"/>
	<path d="M174.2,31.5c-3.1-3.2-6.9-4.5-11.2-4.4c-3.8,0.1-7.3,1.2-10.1,3.9c-3.9,3.7-4.9,8.4-3.7,13.6c0.6,2.5,2,4.8,4,6.5
		c3.6,3.1,7.9,3.9,12.6,3.3c7.2-0.9,12.2-6.4,12-13.5C177.8,37.3,176.7,34.1,174.2,31.5z M169.8,41.9c0,0,0,0.1,0,0.2
		c-0.1,0.4-0.2,0.8-0.3,1.2c-0.6,2.1-2.1,3.5-4.3,4c-0.6,0.2-1.2,0.1-1.8,0.2c-3.4,0.3-6.2-2.3-6.4-5.5c0-0.3,0-0.6,0-1v-0.1
		c0-0.1,0-0.3,0-0.4c0-0.3,0-0.5,0-0.8c0-0.1,0-0.2,0-0.3c0-0.1,0-0.2,0-0.3c0.3-2.5,2.1-4.4,4.8-4.9c1-0.2,2-0.2,3-0.1
		c0.3,0,0.6,0.1,0.9,0.2c0.2,0,0.3,0.1,0.5,0.2c0.1,0,0.1,0.1,0.2,0.1c0.1,0.1,0.3,0.1,0.4,0.2c0.1,0.1,0.2,0.2,0.4,0.2
		c0.2,0.1,0.3,0.2,0.5,0.3c0.1,0.1,0.2,0.2,0.3,0.2c0.1,0.1,0.1,0.1,0.2,0.2c0.1,0.1,0.1,0.2,0.2,0.2c0,0,0.1,0.1,0.1,0.1
		c0.1,0.1,0.2,0.3,0.3,0.4c0.1,0.2,0.2,0.4,0.4,0.5c0.1,0.1,0.1,0.2,0.2,0.4c0.1,0.2,0.2,0.5,0.3,0.7c0.1,0.2,0.1,0.4,0.2,0.6
		c0.1,0.3,0.1,0.6,0.2,0.9C169.9,40.4,169.9,41.1,169.8,41.9z"/>
	<path d="M142.1,27.6h-5.2c-1,0-1.1,0.2-1.1,1.2v2c-0.1,0.1-0.2,0.1-0.3,0.1c-0.4-0.4-0.9-1-1.3-1.3c-4.4-3.6-12.6-4.1-17,2.5
		c-2.3,3.3-3,7.1-2.4,11.1c0.9,6.1,4.9,10.1,10.9,10.9c3.3,0.4,6.2-0.1,8.6-2.6c0.1-0.2,0.3-0.3,0.7-0.5v2.8c-0.1,3.1-2,5.3-5,5.9
		c-3.8,0.7-7-0.4-10-2.6c-0.6-0.4-1-0.4-1.4,0.3c-1,1.5-2,2.9-3,4.4c-1,1.6-1,1.6,0.5,2.5c5.6,3.2,11.6,3.4,17.8,2
		c4.6-1.1,7.4-4.1,8.5-8.6c0.5-2.1,0.8-4.4,0.8-6.6c0.1-7.4,0-14.9,0.1-22.2C143.2,28,142.9,27.6,142.1,27.6z M129.1,47.1
		c-3.2,0.3-6.5-2.9-6.4-6.4c0.1-3.6,2.9-6.6,6.4-6.6c3.6-0.1,6.6,3,6.6,6.6C135.7,44.1,132.5,47.4,129.1,47.1z"/>
	<path d="M110.6,38.5c-0.5-3.4-2-6.2-4.6-8.3c-2.9-2.4-6.2-3.3-10.3-3.3c-4.7,0.1-8.9,1.7-11.9,5.8c-2,2.8-2.6,6-2.4,9.4
		c0.3,4,2,7.2,5.2,9.5c4.2,3.2,9,3.7,14,2.4c2.5-0.7,4.7-1.9,6.4-3.9C110.1,46.9,111.1,43,110.6,38.5z M102.2,43.6
		c-0.1,0.1-0.1,0.3-0.2,0.4c-0.1,0.2-0.2,0.5-0.4,0.7v0c-0.9,1.5-2.4,2.4-3.9,2.6c-5.6,1-9.2-2.8-8-8.4c0.6-2.7,2.6-4.5,5.7-4.8
		c3.1-0.3,5.5,1.1,6.6,3.7c0.2,0.4,0.3,0.8,0.3,1.2c0.1,0.5,0.2,1.1,0.2,1.8C102.6,41.8,102.5,42.7,102.2,43.6z"/>
	<path d="M76.5,14.5v37.9c0,1.5-0.1,1.6-1.6,1.6h-5.2c-1.3,0-1.4-0.1-1.4-1.4V14.5c0-1.4,0.1-1.5,1.5-1.5H75
		C76.3,13,76.5,13.1,76.5,14.5z"/>
</g>
</svg>
