<svg id="Layer_1" data-name="Layer 1" xmlns="http://www.w3.org/2000/svg" viewBox="0 0 300.1 80"><defs><style>.cls-1{fill:#5fff7a;}</style></defs><title>savebutton</title><path class="cls-1" d="M125.62,43c-3.61,0-7.23-.2-10.78.64a10.35,10.35,0,0,0-5.36,2.65,4.86,4.86,0,0,0,.93,7.56,9.65,9.65,0,0,0,6.38,1.23,12.56,12.56,0,0,0,6.92-2.77,8.29,8.29,0,0,0,2.79-7c0-.46,0-.93,0-1.4A.82.82,0,0,0,125.62,43Zm0,0c-3.61,0-7.23-.2-10.78.64a10.35,10.35,0,0,0-5.36,2.65,4.86,4.86,0,0,0,.93,7.56,9.65,9.65,0,0,0,6.38,1.23,12.56,12.56,0,0,0,6.92-2.77,8.29,8.29,0,0,0,2.79-7c0-.46,0-.93,0-1.4A.82.82,0,0,0,125.62,43ZM269.25,0H29.92C13.09,0,0,10.56,0,24.13V55.81C0,69.38,13.09,80,29.92,80H270.18C287,80,300.1,69.38,300.1,55.81V24.13C299.17,10.56,286.08,0,269.25,0ZM86.07,57.7a16.82,16.82,0,0,1-7.69,5.57C74.5,64.73,70.31,65,66.29,65.22c-4.82-.26-9.84-.78-14.38-3.31a31.84,31.84,0,0,1-3.67-2.71c-.49-.38-.46-.77,0-1.25q3.85-4.26,7.66-8.56c.49-.55.85-.46,1.3,0a13.1,13.1,0,0,0,5.55,3.84,13.39,13.39,0,0,0,9.07-.13,2.68,2.68,0,0,0,2-2.37,2.72,2.72,0,0,0-1.47-2.9,23.77,23.77,0,0,0-4-1.55c-3.25-.9-6.55-1.57-9.77-2.52a14.51,14.51,0,0,1-6.61-3.9,12,12,0,0,1-3.14-8.19,14.45,14.45,0,0,1,3.88-10.95,18.59,18.59,0,0,1,9.81-5.27A31.8,31.8,0,0,1,80.3,16.77a17.9,17.9,0,0,1,5.75,3.61c.49.43.59.84.08,1.33-2.65,2.58-5.31,5.17-7.95,7.77-.55.55-.83.15-1.2-.23-2.93-3.09-7.77-4.15-11.33-2.53a3.36,3.36,0,0,0-2.07,2.68,2.64,2.64,0,0,0,1.45,3A25.06,25.06,0,0,0,69,33.8c3.24.88,6.54,1.59,9.77,2.52a15,15,0,0,1,6.15,3.6A11,11,0,0,1,88.44,47C88.82,50.83,88.5,54.51,86.07,57.7Zm54.1,4.69c0,1.6-.09,1.69-1.7,1.69-3.49,0-7,0-10.47,0-1.31,0-1.46-.16-1.48-1.44s0-2.31,0-3.46a10,10,0,0,0-.14-1.12,4.4,4.4,0,0,0-.55.45c-2.71,4-6.76,5.65-11.3,6.37a20.55,20.55,0,0,1-12.66-1.73c-5.41-2.68-8-7.1-7.92-13.11,0-6.77,3.55-11.06,9.57-13.58a39.21,39.21,0,0,1,12.38-2.64c3.1-.23,6.22-.28,9.33-.4,1.16-.05,1.26-.21,1.15-1.35-.44-4.4-4.91-7.1-8.74-7.26a15.41,15.41,0,0,0-11.73,4.64c-1.09,1-1.1,1.06-2.14,0-2-2.07-4-4.17-6.07-6.23-.6-.6-.51-1,.1-1.5a30.6,30.6,0,0,1,17.2-6.8,34.8,34.8,0,0,1,10.78.6c4.52,1,8.34,3.1,10.84,7.16a19.24,19.24,0,0,1,2.75,8c.39,3.42.72,6.88.77,10.33C140.25,48.12,140.17,55.26,140.17,62.39Zm58.28-45.17Q191,36,183.58,54.87c-1.05,2.67-2.13,5.33-3.15,8a1.61,1.61,0,0,1-1.73,1.21q-6.6,0-13.18,0a1.66,1.66,0,0,1-1.75-1.2q-9.47-22.95-19-45.88c-.41-1-.33-1.16.73-1.16,4.52,0,9,0,13.56,0a1.63,1.63,0,0,1,1.73,1.22Q166.4,32.13,172,47.19c.13.36.32.71.48,1.07l.27,0c.18-.42.39-.83.54-1.26l8.16-23.69c.71-2.06,1.44-4.11,2.12-6.19a1.64,1.64,0,0,1,1.78-1.27c4.05,0,8.11,0,12.16,0C198.81,15.85,198.92,16,198.45,17.22ZM252.19,43.6c0,.92-.6,1-1.33,1h-31.5c-1.48,0-1.64.25-1.17,1.65,2.92,8.68,13.39,9.81,18.95,4.52a21.65,21.65,0,0,0,1.9-2,.77.77,0,0,1,1.25-.15q4.4,3.26,8.81,6.47c.62.45.72.78.17,1.41A25,25,0,0,1,232.79,65a27.46,27.46,0,0,1-18.22-3.83c-7.49-4.66-11.3-11.53-11.56-20.37a24.45,24.45,0,0,1,4.16-15,24,24,0,0,1,12.46-9.39,28.9,28.9,0,0,1,14-1.33c8.74,1.41,14.29,6.56,17.07,14.85C252.19,34.37,252.3,39,252.19,43.6Zm-18-16.19c-3.64-3.13-9.48-2.29-12.63.07A9.34,9.34,0,0,0,218,33.07c-.26,1.21,0,1.46,1.19,1.46,2.81,0,5.61,0,8.42,0s5.73,0,8.6,0c1.08,0,1.34-.3,1.21-1.36A8.78,8.78,0,0,0,234.21,27.41ZM125.62,43c-3.61,0-7.23-.2-10.78.64a10.35,10.35,0,0,0-5.36,2.65,4.86,4.86,0,0,0,.93,7.56,9.65,9.65,0,0,0,6.38,1.23,12.56,12.56,0,0,0,6.92-2.77,8.29,8.29,0,0,0,2.79-7c0-.46,0-.93,0-1.4A.82.82,0,0,0,125.62,43Zm0,0c-3.61,0-7.23-.2-10.78.64a10.35,10.35,0,0,0-5.36,2.65,4.86,4.86,0,0,0,.93,7.56,9.65,9.65,0,0,0,6.38,1.23,12.56,12.56,0,0,0,6.92-2.77,8.29,8.29,0,0,0,2.79-7c0-.46,0-.93,0-1.4A.82.82,0,0,0,125.62,43Zm0,0c-3.61,0-7.23-.2-10.78.64a10.35,10.35,0,0,0-5.36,2.65,4.86,4.86,0,0,0,.93,7.56,9.65,9.65,0,0,0,6.38,1.23,12.56,12.56,0,0,0,6.92-2.77,8.29,8.29,0,0,0,2.79-7c0-.46,0-.93,0-1.4A.82.82,0,0,0,125.62,43Z" transform="translate(0 0.03)"/></svg>