<?xml version="1.0" encoding="utf-8"?>
<!-- Generator: Adobe Illustrator 22.1.0, SVG Export Plug-In . SVG Version: 6.00 Build 0)  -->
<svg version="1.1" id="Layer_1" xmlns="http://www.w3.org/2000/svg" xmlns:xlink="http://www.w3.org/1999/xlink" x="0px" y="0px"
	 viewBox="0 0 300.1 80" style="enable-background:new 0 0 300.1 80;" xml:space="preserve">
<style type="text/css">
	.st0{fill:#4796EC;}
</style>
<title>savebutton</title>
<path class="st0" d="M125.6,43c-3.6,0-7.2-0.2-10.8,0.6c-2,0.3-3.9,1.3-5.4,2.7c-1.9,1.9-1.9,5,0.1,6.9c0.3,0.3,0.6,0.5,0.9,0.7
	c1.9,1.1,4.2,1.6,6.4,1.2c2.5-0.2,4.9-1.2,6.9-2.8c2-1.8,3-4.4,2.8-7c0-0.5,0-0.9,0-1.4c0.1-0.4-0.3-0.9-0.7-0.9
	C125.7,43,125.7,43,125.6,43z M125.6,43c-3.6,0-7.2-0.2-10.8,0.6c-2,0.3-3.9,1.3-5.4,2.7c-1.9,1.9-1.9,5,0.1,6.9
	c0.3,0.3,0.6,0.5,0.9,0.7c1.9,1.1,4.2,1.6,6.4,1.2c2.5-0.2,4.9-1.2,6.9-2.8c2-1.8,3-4.4,2.8-7c0-0.5,0-0.9,0-1.4
	c0.1-0.4-0.3-0.9-0.7-0.9C125.7,43,125.7,43,125.6,43z M269.2,0H29.9C13.1,0,0,10.6,0,24.2v31.7C0,69.4,13.1,80,29.9,80h240.3
	c16.8,0,29.9-10.6,29.9-24.2V24.2C299.2,10.6,286.1,0,269.2,0z M86.1,57.7c-2,2.6-4.6,4.5-7.7,5.6c-3.9,1.5-8.1,1.7-12.1,2
	c-4.8-0.3-9.8-0.8-14.4-3.3c-1.3-0.8-2.5-1.7-3.7-2.7c-0.5-0.4-0.5-0.8,0-1.2c2.6-2.8,5.1-5.7,7.7-8.6c0.5-0.5,0.8-0.5,1.3,0
	c1.5,1.7,3.4,3.1,5.5,3.8c2.9,1,6.2,1,9.1-0.1c1.1-0.3,1.9-1.2,2-2.4c0.2-1.2-0.4-2.4-1.5-2.9c-1.3-0.6-2.6-1.2-4-1.5
	c-3.2-0.9-6.5-1.6-9.8-2.5c-2.5-0.7-4.8-2-6.6-3.9c-2-2.2-3.2-5.2-3.1-8.2c-0.3-4,1.1-8,3.9-11c2.7-2.7,6.1-4.6,9.8-5.3
	c5.9-1.3,12.1-0.8,17.8,1.3c2.1,0.8,4.1,2.1,5.8,3.6c0.5,0.4,0.6,0.8,0.1,1.3c-2.7,2.6-5.3,5.2-7.9,7.8c-0.6,0.5-0.8,0.1-1.2-0.2
	c-2.9-3.1-7.8-4.1-11.3-2.5c-1.1,0.5-1.9,1.5-2.1,2.7c-0.3,1.2,0.3,2.5,1.4,3c1.3,0.6,2.6,1,4,1.4c3.2,0.9,6.5,1.6,9.8,2.5
	c2.3,0.7,4.4,1.9,6.2,3.6c2,1.8,3.3,4.4,3.5,7.1C88.8,50.9,88.5,54.5,86.1,57.7z M140.2,62.4c0,1.6-0.1,1.7-1.7,1.7
	c-3.5,0-7,0-10.5,0c-1.3,0-1.5-0.2-1.5-1.4s0-2.3,0-3.5c0-0.4-0.1-0.7-0.1-1.1c-0.2,0.1-0.4,0.3-0.6,0.5c-2.7,4-6.8,5.6-11.3,6.4
	c-4.3,0.8-8.7,0.2-12.7-1.7c-5.4-2.7-8-7.1-7.9-13.1c0-6.8,3.6-11.1,9.6-13.6c4-1.5,8.1-2.4,12.4-2.6c3.1-0.2,6.2-0.3,9.3-0.4
	c1.2,0,1.3-0.2,1.2-1.3c-0.4-4.4-4.9-7.1-8.7-7.3c-4.4-0.2-8.7,1.5-11.7,4.6c-1.1,1-1.1,1.1-2.1,0c-2-2.1-4-4.2-6.1-6.2
	c-0.6-0.6-0.5-1,0.1-1.5c4.9-4,10.9-6.4,17.2-6.8c3.6-0.4,7.2-0.2,10.8,0.6c4.5,1,8.3,3.1,10.8,7.2c1.5,2.4,2.4,5.2,2.8,8
	c0.4,3.4,0.7,6.9,0.8,10.3C140.2,48.1,140.2,55.3,140.2,62.4z M198.4,17.3c-5,12.5-9.9,25.1-14.9,37.6c-1.1,2.7-2.1,5.3-3.1,8
	c-0.2,0.8-0.9,1.3-1.7,1.2c-4.4,0-8.8,0-13.2,0c-0.8,0.1-1.5-0.4-1.8-1.2c-6.3-15.3-12.6-30.6-19-45.9c-0.4-1-0.3-1.2,0.7-1.2
	c4.5,0,9,0,13.6,0c0.8-0.1,1.5,0.4,1.7,1.2c3.7,10,7.5,20.1,11.2,30.1c0.1,0.4,0.3,0.7,0.5,1.1h0.3c0.2-0.4,0.4-0.8,0.5-1.3
	l8.2-23.7c0.7-2.1,1.4-4.1,2.1-6.2c0.2-0.8,0.9-1.4,1.8-1.3c4.1,0,8.1,0,12.2,0C198.8,15.9,198.9,16,198.4,17.3z M252.2,43.6
	c0,0.9-0.6,1-1.3,1h-31.5c-1.5,0-1.6,0.2-1.2,1.7c2.9,8.7,13.4,9.8,18.9,4.5c0.7-0.6,1.3-1.3,1.9-2c0.2-0.4,0.7-0.5,1-0.3
	c0.1,0,0.1,0.1,0.2,0.2c2.9,2.2,5.9,4.3,8.8,6.5c0.6,0.5,0.7,0.8,0.2,1.4c-4.2,4.8-10.1,7.9-16.5,8.5c-6.3,0.9-12.8-0.5-18.2-3.8
	c-7.5-4.7-11.3-11.5-11.6-20.4c-0.3-5.3,1.2-10.6,4.2-15c3-4.4,7.4-7.7,12.5-9.4c4.5-1.6,9.3-2,14-1.3c8.7,1.4,14.3,6.6,17.1,14.9
	C252.2,34.4,252.3,39,252.2,43.6z M234.2,27.4c-3.6-3.1-9.5-2.3-12.6,0.1c-1.8,1.4-3.1,3.4-3.6,5.6c-0.3,1.2,0,1.5,1.2,1.5
	c2.8,0,5.6,0,8.4,0s5.7,0,8.6,0c1.1,0,1.3-0.3,1.2-1.4C237.1,30.9,236,28.9,234.2,27.4L234.2,27.4z M125.6,43
	c-3.6,0-7.2-0.2-10.8,0.6c-2,0.3-3.9,1.3-5.4,2.7c-1.9,1.9-1.9,5,0.1,6.9c0.3,0.3,0.6,0.5,0.9,0.7c1.9,1.1,4.2,1.6,6.4,1.2
	c2.5-0.2,4.9-1.2,6.9-2.8c2-1.8,3-4.4,2.8-7c0-0.5,0-0.9,0-1.4c0.1-0.4-0.3-0.9-0.7-0.9C125.7,43,125.7,43,125.6,43z M125.6,43
	c-3.6,0-7.2-0.2-10.8,0.6c-2,0.3-3.9,1.3-5.4,2.7c-1.9,1.9-1.9,5,0.1,6.9c0.3,0.3,0.6,0.5,0.9,0.7c1.9,1.1,4.2,1.6,6.4,1.2
	c2.5-0.2,4.9-1.2,6.9-2.8c2-1.8,3-4.4,2.8-7c0-0.5,0-0.9,0-1.4c0.1-0.4-0.3-0.9-0.7-0.9C125.7,43,125.7,43,125.6,43z M125.6,43
	c-3.6,0-7.2-0.2-10.8,0.6c-2,0.3-3.9,1.3-5.4,2.7c-1.9,1.9-1.9,5,0.1,6.9c0.3,0.3,0.6,0.5,0.9,0.7c1.9,1.1,4.2,1.6,6.4,1.2
	c2.5-0.2,4.9-1.2,6.9-2.8c2-1.8,3-4.4,2.8-7c0-0.5,0-0.9,0-1.4c0.1-0.4-0.3-0.9-0.7-0.9C125.7,43,125.7,43,125.6,43z"/>
</svg>
