<?xml version="1.0" encoding="utf-8"?>
<!-- Generator: Adobe Illustrator 22.1.0, SVG Export Plug-In . SVG Version: 6.00 Build 0)  -->
<svg version="1.1" id="Capa_1" xmlns="http://www.w3.org/2000/svg" xmlns:xlink="http://www.w3.org/1999/xlink" x="0px" y="0px"
	 viewBox="0 0 80.1 80.1" style="enable-background:new 0 0 80.1 80.1;" xml:space="preserve">
<style type="text/css">
	.st0{fill:#4796EC;}
</style>
<path class="st0" d="M68.4,11.7C61.1,4.5,51.1,0,40,0S19,4.5,11.7,11.7S0,29,0,40.1c0,22.1,17.9,40,40,40c11.1,0,21.1-4.5,28.3-11.7
	s11.7-17.3,11.7-28.3S75.6,19,68.4,11.7z M40.7,10.7c8.3,0,14.9,6.7,14.9,14.9s-6.7,14.9-14.9,14.9s-14.9-6.7-14.9-14.9
	S32.4,10.7,40.7,10.7z M40,78.3c-9.5,0-18.1-3.4-24.8-9.1v-8.7c0-10.4,8.4-19,19-19h12.6c10.6,0,19.2,8.6,19.2,19.2v7.4
	C59.3,74.4,50.2,78.3,40,78.3z"/>
</svg>
